<svg width="1600" height="930" viewBox="0 0 1600 760" fill="none"
    xmlns="http://www.w3.org/2000/svg">
    <g clip-path="url(#clip0_128_2)">
        <rect width="1600" height="1060" fill="#2cd19a" />
        <path
            d="M33.88 61H16.536C13.208 61 11.032 58.952 11.032 55.176V21.896C11.032 18.184 13.72 16.072 16.6 16.072C19.48 16.072 22.168 18.12 22.168 21.896V49.352H33.88C36.888 49.352 39.576 51.72 39.576 55.24C39.576 58.76 36.888 61 33.88 61ZM69.8285 61H49.2205C46.1485 61 43.8445 58.568 43.8445 55.176V22.664C43.8445 19.272 46.1485 16.84 49.2205 16.84H69.0605C72.0045 16.84 74.6925 19.144 74.6925 22.664C74.6925 26.184 72.0045 28.488 69.0605 28.488H54.9805V34.504L63.0445 33.864C64.5165 33.672 65.6685 33.544 66.5645 33.544C69.1885 33.544 71.0445 35.4 71.0445 38.088C71.0445 40.776 69.1885 42.632 66.3725 42.632C65.5405 42.632 64.4525 42.568 62.9165 42.44L54.9805 41.992V49.352H69.8285C72.7725 49.352 75.5245 51.656 75.5245 55.24C75.5245 58.696 72.7725 61 69.8285 61ZM108.851 24.584L117.811 53.256C119.027 57.224 117.555 61.704 112.435 61.704C109.619 61.704 107.443 60.04 106.547 56.008L105.587 51.912H91.699L90.547 56.648C89.843 60.104 87.603 61.704 84.659 61.704C80.051 61.704 78.131 57.864 79.731 52.808L88.563 24.584C90.227 19.208 93.619 16.072 98.803 16.072C104.051 16.072 107.123 19.208 108.851 24.584ZM103.155 41.992L99.507 28.808H97.779L94.131 41.992H103.155ZM128.663 61.768C125.719 61.768 123.095 59.72 123.095 56.008V22.664C123.095 18.952 125.527 16.84 128.343 16.84H141.783C152.023 16.84 157.847 21.576 157.847 30.024C157.847 35.272 155.287 40.136 149.463 41.992C152.854 43.016 154.199 45.192 155.159 47.944L157.207 53.448C158.935 57.992 156.183 61.768 151.831 61.768C149.143 61.768 147.287 60.232 146.455 57.544L143.895 49.672C143.063 47.048 141.655 45.96 139.095 45.576L134.167 45.064V56.008C134.167 59.72 131.479 61.768 128.663 61.768ZM134.167 27.848V36.616H140.375C144.151 36.616 146.647 35.016 146.647 32.008C146.647 29 143.767 27.848 140.311 27.848H134.167ZM168.972 61.768C165.836 61.768 163.532 59.336 163.532 56.008V22.344C163.532 19.016 165.772 16.072 169.932 16.072C172.876 16.072 174.732 17.8 176.14 19.784L190.988 42.12V21.896C190.988 18.504 193.292 16.072 196.428 16.072C199.564 16.072 201.932 18.504 201.932 21.896V54.408C201.932 58.248 199.82 61.768 195.788 61.768C192.972 61.768 190.796 60.168 189.388 58.184L174.476 36.296V56.008C174.476 59.336 172.172 61.768 168.972 61.768ZM237.603 61.768C234.531 61.768 231.971 59.464 231.971 56.264V28.68H226.851C223.779 28.68 220.963 26.312 220.963 22.792C220.963 19.208 223.779 16.84 226.851 16.84H248.419C251.555 16.84 254.307 19.208 254.307 22.792C254.307 26.312 251.555 28.68 248.419 28.68H243.171V56.264C243.171 59.464 240.675 61.768 237.603 61.768ZM276.875 61.768C263.947 61.768 254.987 53.256 254.987 38.92C254.987 24.584 263.947 16.072 276.875 16.072C289.867 16.072 298.827 24.584 298.827 38.92C298.827 53.256 289.867 61.768 276.875 61.768ZM276.875 49.928C283.915 49.928 287.563 45.896 287.563 38.92C287.563 31.88 283.915 27.912 276.875 27.912C269.899 27.912 266.251 31.88 266.251 38.92C266.251 45.896 269.899 49.928 276.875 49.928ZM339.067 61.768C325.115 61.768 316.987 53.064 316.987 38.728C316.987 24.264 325.563 16.072 338.683 16.072C351.099 16.072 358.139 22.6 358.139 28.36C358.139 32.392 355.387 34.376 352.571 34.376C350.907 34.376 349.243 33.608 347.963 32.072C346.235 29.704 343.739 28.104 338.875 28.104C332.347 28.104 328.379 30.6 328.379 38.728C328.379 47.24 332.539 49.8 339.387 49.8C344.699 49.8 346.747 47.688 348.475 45.832C349.819 44.424 351.099 43.144 353.467 43.144C356.027 43.144 358.523 45.128 358.523 48.712C358.523 55.752 349.691 61.768 339.067 61.768ZM384.875 61.768C371.947 61.768 362.987 53.256 362.987 38.92C362.987 24.584 371.947 16.072 384.875 16.072C397.867 16.072 406.827 24.584 406.827 38.92C406.827 53.256 397.867 61.768 384.875 61.768ZM384.875 49.928C391.915 49.928 395.563 45.896 395.563 38.92C395.563 31.88 391.915 27.912 384.875 27.912C377.899 27.912 374.251 31.88 374.251 38.92C374.251 45.896 377.899 49.928 384.875 49.928ZM429.994 61H418.345C415.274 61 412.97 58.568 412.97 55.176V22.664C412.97 19.272 415.274 16.84 418.345 16.84H429.994C445.034 16.84 451.69 27.016 451.69 38.664C451.69 50.888 445.097 61 429.994 61ZM424.106 28.36V49.48H429.482C436.074 49.48 440.554 46.856 440.554 38.856C440.554 31.176 436.202 28.36 429.546 28.36H424.106ZM483.829 61H463.22C460.149 61 457.845 58.568 457.845 55.176V22.664C457.845 19.272 460.149 16.84 463.22 16.84H483.061C486.005 16.84 488.693 19.144 488.693 22.664C488.693 26.184 486.005 28.488 483.061 28.488H468.981V34.504L477.045 33.864C478.517 33.672 479.669 33.544 480.565 33.544C483.189 33.544 485.045 35.4 485.045 38.088C485.045 40.776 483.189 42.632 480.373 42.632C479.541 42.632 478.453 42.568 476.917 42.44L468.981 41.992V49.352H483.829C486.773 49.352 489.525 51.656 489.525 55.24C489.525 58.696 486.773 61 483.829 61ZM545.828 49.864L551.076 53.704C553.508 55.496 553.252 58.504 551.972 60.04C550.5 61.896 547.812 62.408 544.868 60.232L539.62 56.264C535.14 59.656 529.572 61.704 523.172 61.704C512.164 61.768 506.532 56.648 506.532 49.288C506.468 43.912 510.244 40.072 515.748 37.96C512.932 35.656 509.988 32.392 509.988 27.848C509.988 20.872 515.748 16.072 524.58 16.072C533.028 16.072 538.404 20.424 538.404 26.888C538.404 32.84 534.18 36.296 529.828 38.024L538.148 44.168C539.812 41.8 541.028 39.048 541.988 36.232C542.948 33.416 544.74 32.328 546.852 32.328C550.244 32.328 552.164 35.4 551.076 39.048C549.924 42.952 548.132 46.6 545.828 49.864ZM524.324 25.48C521.316 25.48 520.036 27.016 520.036 28.68C520.036 30.408 521.38 31.752 522.916 32.904L524.58 34.184C527.524 32.648 528.548 30.728 528.548 28.68C528.548 26.888 527.14 25.48 524.324 25.48ZM524.388 51.592C527.076 51.592 529.444 51.016 531.428 50.056L521.06 42.12C518.564 43.08 516.964 44.872 516.964 47.048C516.964 49.608 519.396 51.592 524.388 51.592ZM588.172 61.768C576.908 61.768 569.484 56.712 569.484 50.568C569.484 47.432 571.916 45.256 574.796 45.256C577.1 45.256 578.06 46.408 579.34 47.688C580.812 49.224 582.732 50.888 587.852 50.888C592.396 50.888 595.596 49.544 595.596 46.536C595.596 43.976 592.14 43.464 587.916 42.952C580.684 42.184 570.508 41.672 570.508 30.344C570.508 21.704 577.036 16.072 588.428 16.072C598.284 16.072 606.284 19.848 606.284 26.44C606.284 29.576 603.66 31.752 601.036 31.752C599.372 31.752 598.22 31.048 597.004 30.088C595.084 28.552 593.164 26.888 588.556 26.888C584.652 26.888 581.836 28.168 581.836 30.536C581.836 33.352 585.42 34.056 589.58 34.376C596.748 35.08 606.988 35.464 606.988 46.6C606.988 56.456 599.116 61.768 588.172 61.768ZM631.717 61.768C618.725 61.768 612.837 55.24 612.837 43.72V21.896C612.837 18.184 615.525 16.072 618.405 16.072C621.285 16.072 623.973 18.12 623.973 21.896V42.824C623.973 48.2 627.173 50.184 631.717 50.184C636.261 50.184 639.525 48.2 639.525 42.824V21.896C639.525 18.184 642.213 16.072 645.093 16.072C647.973 16.072 650.661 18.12 650.661 21.896V43.72C650.661 55.112 644.837 61.768 631.717 61.768ZM663.913 61.768C660.841 61.768 658.345 59.336 658.345 56.008V22.664C658.345 19.336 660.649 16.84 663.657 16.84H676.201C686.441 16.84 692.521 23.176 692.521 32.584C692.521 43.208 685.097 48.776 676.137 48.776H669.481V56.008C669.481 59.336 666.985 61.768 663.913 61.768ZM669.481 28.168V37.96H674.985C679.209 37.96 681.705 36.616 681.705 32.968C681.705 29.128 679.209 28.168 675.049 28.168H669.481ZM703.725 61.768C700.653 61.768 698.157 59.336 698.157 56.008V22.664C698.157 19.336 700.461 16.84 703.469 16.84H716.013C726.253 16.84 732.333 23.176 732.333 32.584C732.333 43.208 724.909 48.776 715.949 48.776H709.293V56.008C709.293 59.336 706.797 61.768 703.725 61.768ZM709.293 28.168V37.96H714.797C719.021 37.96 721.517 36.616 721.517 32.968C721.517 29.128 719.021 28.168 714.861 28.168H709.293ZM757.875 61.768C744.947 61.768 735.987 53.256 735.987 38.92C735.987 24.584 744.947 16.072 757.875 16.072C770.867 16.072 779.827 24.584 779.827 38.92C779.827 53.256 770.867 61.768 757.875 61.768ZM757.875 49.928C764.915 49.928 768.563 45.896 768.563 38.92C768.563 31.88 764.915 27.912 757.875 27.912C750.899 27.912 747.251 31.88 747.251 38.92C747.251 45.896 750.899 49.928 757.875 49.928ZM791.538 61.768C788.594 61.768 785.97 59.72 785.97 56.008V22.664C785.97 18.952 788.402 16.84 791.218 16.84H804.658C814.898 16.84 820.722 21.576 820.722 30.024C820.722 35.272 818.162 40.136 812.338 41.992C815.729 43.016 817.074 45.192 818.034 47.944L820.082 53.448C821.81 57.992 819.058 61.768 814.706 61.768C812.018 61.768 810.162 60.232 809.33 57.544L806.77 49.672C805.938 47.048 804.53 45.96 801.97 45.576L797.042 45.064V56.008C797.042 59.72 794.354 61.768 791.538 61.768ZM797.042 27.848V36.616H803.25C807.026 36.616 809.522 35.016 809.522 32.008C809.522 29 806.642 27.848 803.186 27.848H797.042ZM838.978 61.768C835.906 61.768 833.346 59.464 833.346 56.264V28.68H828.226C825.154 28.68 822.338 26.312 822.338 22.792C822.338 19.208 825.154 16.84 828.226 16.84H849.794C852.93 16.84 855.682 19.208 855.682 22.792C855.682 26.312 852.93 28.68 849.794 28.68H844.546V56.264C844.546 59.464 842.05 61.768 838.978 61.768ZM888.416 61.768C885.344 61.768 882.784 59.464 882.784 56.264V28.68H877.664C874.592 28.68 871.776 26.312 871.776 22.792C871.776 19.208 874.592 16.84 877.664 16.84H899.232C902.368 16.84 905.12 19.208 905.12 22.792C905.12 26.312 902.368 28.68 899.232 28.68H893.984V56.264C893.984 59.464 891.488 61.768 888.416 61.768ZM914.975 61.768C912.031 61.768 909.407 59.72 909.407 55.944V21.896C909.407 18.184 912.095 16.072 914.975 16.072C917.855 16.072 920.543 18.12 920.543 21.896V32.392H936.223V21.896C936.223 18.184 938.975 16.072 941.791 16.072C944.735 16.072 947.359 18.12 947.359 21.896V55.944C947.359 59.656 944.671 61.768 941.791 61.768C938.911 61.768 936.223 59.72 936.223 55.944V43.784H920.543V55.944C920.543 59.656 917.791 61.768 914.975 61.768ZM981.391 61H960.783C957.711 61 955.407 58.568 955.407 55.176V22.664C955.407 19.272 957.711 16.84 960.783 16.84H980.623C983.567 16.84 986.255 19.144 986.255 22.664C986.255 26.184 983.567 28.488 980.623 28.488H966.543V34.504L974.607 33.864C976.079 33.672 977.231 33.544 978.127 33.544C980.751 33.544 982.607 35.4 982.607 38.088C982.607 40.776 980.751 42.632 977.935 42.632C977.103 42.632 976.015 42.568 974.479 42.44L966.543 41.992V49.352H981.391C984.335 49.352 987.087 51.656 987.087 55.24C987.087 58.696 984.335 61 981.391 61ZM1012.35 61.768C1009.41 61.768 1006.78 59.656 1006.78 55.944V21.896C1006.78 18.184 1009.41 16.072 1012.35 16.072C1015.23 16.072 1017.92 18.184 1017.92 21.896V55.944C1017.92 59.656 1015.23 61.768 1012.35 61.768ZM1031.35 61.768C1028.21 61.768 1025.91 59.336 1025.91 56.008V22.344C1025.91 19.016 1028.15 16.072 1032.31 16.072C1035.25 16.072 1037.11 17.8 1038.52 19.784L1053.36 42.12V21.896C1053.36 18.504 1055.67 16.072 1058.8 16.072C1061.94 16.072 1064.31 18.504 1064.31 21.896V54.408C1064.31 58.248 1062.2 61.768 1058.16 61.768C1055.35 61.768 1053.17 60.168 1051.76 58.184L1036.85 36.296V56.008C1036.85 59.336 1034.55 61.768 1031.35 61.768ZM1089.37 61H1077.72C1074.65 61 1072.34 58.568 1072.34 55.176V22.664C1072.34 19.272 1074.65 16.84 1077.72 16.84H1089.37C1104.41 16.84 1111.06 27.016 1111.06 38.664C1111.06 50.888 1104.47 61 1089.37 61ZM1083.48 28.36V49.48H1088.86C1095.45 49.48 1099.93 46.856 1099.93 38.856C1099.93 31.176 1095.58 28.36 1088.92 28.36H1083.48ZM1143.2 61H1122.6C1119.52 61 1117.22 58.568 1117.22 55.176V22.664C1117.22 19.272 1119.52 16.84 1122.6 16.84H1142.44C1145.38 16.84 1148.07 19.144 1148.07 22.664C1148.07 26.184 1145.38 28.488 1142.44 28.488H1128.36V34.504L1136.42 33.864C1137.89 33.672 1139.04 33.544 1139.94 33.544C1142.56 33.544 1144.42 35.4 1144.42 38.088C1144.42 40.776 1142.56 42.632 1139.75 42.632C1138.92 42.632 1137.83 42.568 1136.29 42.44L1128.36 41.992V49.352H1143.2C1146.15 49.352 1148.9 51.656 1148.9 55.24C1148.9 58.696 1146.15 61 1143.2 61ZM1159.79 61.768C1156.72 61.768 1154.22 59.336 1154.22 56.008V22.664C1154.22 19.336 1156.52 16.84 1159.53 16.84H1172.08C1182.32 16.84 1188.4 23.176 1188.4 32.584C1188.4 43.208 1180.97 48.776 1172.01 48.776H1165.36V56.008C1165.36 59.336 1162.86 61.768 1159.79 61.768ZM1165.36 28.168V37.96H1170.86C1175.08 37.96 1177.58 36.616 1177.58 32.968C1177.58 29.128 1175.08 28.168 1170.92 28.168H1165.36ZM1220.02 61H1199.41C1196.34 61 1194.03 58.568 1194.03 55.176V22.664C1194.03 19.272 1196.34 16.84 1199.41 16.84H1219.25C1222.19 16.84 1224.88 19.144 1224.88 22.664C1224.88 26.184 1222.19 28.488 1219.25 28.488H1205.17V34.504L1213.23 33.864C1214.7 33.672 1215.86 33.544 1216.75 33.544C1219.38 33.544 1221.23 35.4 1221.23 38.088C1221.23 40.776 1219.38 42.632 1216.56 42.632C1215.73 42.632 1214.64 42.568 1213.1 42.44L1205.17 41.992V49.352H1220.02C1222.96 49.352 1225.71 51.656 1225.71 55.24C1225.71 58.696 1222.96 61 1220.02 61ZM1236.47 61.768C1233.34 61.768 1231.03 59.336 1231.03 56.008V22.344C1231.03 19.016 1233.27 16.072 1237.43 16.072C1240.38 16.072 1242.23 17.8 1243.64 19.784L1258.49 42.12V21.896C1258.49 18.504 1260.79 16.072 1263.93 16.072C1267.06 16.072 1269.43 18.504 1269.43 21.896V54.408C1269.43 58.248 1267.32 61.768 1263.29 61.768C1260.47 61.768 1258.3 60.168 1256.89 58.184L1241.98 36.296V56.008C1241.98 59.336 1239.67 61.768 1236.47 61.768ZM1294.49 61H1282.85C1279.77 61 1277.47 58.568 1277.47 55.176V22.664C1277.47 19.272 1279.77 16.84 1282.85 16.84H1294.49C1309.53 16.84 1316.19 27.016 1316.19 38.664C1316.19 50.888 1309.6 61 1294.49 61ZM1288.61 28.36V49.48H1293.98C1300.57 49.48 1305.05 46.856 1305.05 38.856C1305.05 31.176 1300.7 28.36 1294.05 28.36H1288.61ZM1348.33 61H1327.72C1324.65 61 1322.34 58.568 1322.34 55.176V22.664C1322.34 19.272 1324.65 16.84 1327.72 16.84H1347.56C1350.5 16.84 1353.19 19.144 1353.19 22.664C1353.19 26.184 1350.5 28.488 1347.56 28.488H1333.48V34.504L1341.54 33.864C1343.02 33.672 1344.17 33.544 1345.06 33.544C1347.69 33.544 1349.54 35.4 1349.54 38.088C1349.54 40.776 1347.69 42.632 1344.87 42.632C1344.04 42.632 1342.95 42.568 1341.42 42.44L1333.48 41.992V49.352H1348.33C1351.27 49.352 1354.02 51.656 1354.02 55.24C1354.02 58.696 1351.27 61 1348.33 61ZM1364.78 61.768C1361.65 61.768 1359.34 59.336 1359.34 56.008V22.344C1359.34 19.016 1361.58 16.072 1365.74 16.072C1368.69 16.072 1370.54 17.8 1371.95 19.784L1386.8 42.12V21.896C1386.8 18.504 1389.1 16.072 1392.24 16.072C1395.38 16.072 1397.74 18.504 1397.74 21.896V54.408C1397.74 58.248 1395.63 61.768 1391.6 61.768C1388.78 61.768 1386.61 60.168 1385.2 58.184L1370.29 36.296V56.008C1370.29 59.336 1367.98 61.768 1364.78 61.768ZM1418.67 61.768C1415.59 61.768 1413.03 59.464 1413.03 56.264V28.68H1407.91C1404.84 28.68 1402.03 26.312 1402.03 22.792C1402.03 19.208 1404.84 16.84 1407.91 16.84H1429.48C1432.62 16.84 1435.37 19.208 1435.37 22.792C1435.37 26.312 1432.62 28.68 1429.48 28.68H1424.23V56.264C1424.23 59.464 1421.74 61.768 1418.67 61.768ZM1468.55 61.768C1464.58 61.768 1461.58 59.272 1460.49 55.24L1452.04 24.008C1450.76 19.336 1453.83 16.008 1457.61 16.008C1460.94 16.008 1463.24 17.864 1463.94 21.576L1469.13 45.512H1469.51L1474.95 22.024C1475.72 18.504 1478.02 16.072 1481.54 16.072C1485.06 16.072 1487.37 18.504 1488.14 22.024L1493.58 45.512H1493.96L1499.14 21.576C1499.85 17.864 1502.09 16.008 1505.48 16.008C1509.19 16.008 1512.33 19.336 1511.05 24.008L1502.6 55.24C1501.51 59.272 1498.5 61.768 1494.54 61.768C1490.57 61.768 1487.56 59.144 1486.6 54.92L1481.74 34.568H1481.35L1476.49 54.92C1475.46 59.144 1472.46 61.768 1468.55 61.768ZM1542.45 61H1521.85C1518.77 61 1516.47 58.568 1516.47 55.176V22.664C1516.47 19.272 1518.77 16.84 1521.85 16.84H1541.69C1544.63 16.84 1547.32 19.144 1547.32 22.664C1547.32 26.184 1544.63 28.488 1541.69 28.488H1527.61V34.504L1535.67 33.864C1537.14 33.672 1538.29 33.544 1539.19 33.544C1541.81 33.544 1543.67 35.4 1543.67 38.088C1543.67 40.776 1541.81 42.632 1539 42.632C1538.17 42.632 1537.08 42.568 1535.54 42.44L1527.61 41.992V49.352H1542.45C1545.4 49.352 1548.15 51.656 1548.15 55.24C1548.15 58.696 1545.4 61 1542.45 61ZM1574.85 61H1558.85C1555.77 61 1553.47 58.568 1553.47 55.24V22.664C1553.47 19.336 1555.77 16.84 1558.85 16.84H1573.57C1585.85 16.84 1588.54 23.688 1588.54 28.808C1588.54 33.48 1585.98 37.448 1580.54 38.92C1586.88 39.624 1589.89 43.016 1589.89 48.776C1589.89 54.28 1585.85 61 1574.85 61ZM1564.61 28.168V35.528H1571.9C1575.36 35.528 1577.34 34.376 1577.34 31.624C1577.34 29 1574.97 28.168 1571.45 28.168H1564.61ZM1564.61 42.184V49.864H1572.61C1576.77 49.864 1578.56 48.328 1578.56 45.896C1578.56 43.464 1576.51 42.184 1573.57 42.184H1564.61Z"
            fill="white" />
        <path
            transform="translate(0, -80)"
            d="M1565.12 864L1582.46 864C1585.79 864 1587.97 866.048 1587.97 869.824L1587.97 903.104C1587.97 906.816 1585.28 908.928 1582.4 908.928C1579.52 908.928 1576.83 906.88 1576.83 903.104L1576.83 875.648L1565.12 875.648C1562.11 875.648 1559.42 873.28 1559.42 869.76C1559.42 866.24 1562.11 864 1565.12 864ZM1529.17 864L1549.78 864C1552.85 864 1555.16 866.432 1555.16 869.824L1555.16 902.336C1555.16 905.728 1552.85 908.16 1549.78 908.16L1529.94 908.16C1527 908.16 1524.31 905.856 1524.31 902.336C1524.31 898.816 1527 896.512 1529.94 896.512L1544.02 896.512L1544.02 890.496L1535.96 891.136C1534.48 891.328 1533.33 891.456 1532.44 891.456C1529.81 891.456 1527.96 889.6 1527.96 886.912C1527.96 884.224 1529.81 882.368 1532.63 882.368C1533.46 882.368 1534.55 882.432 1536.08 882.56L1544.02 883.008L1544.02 875.648L1529.17 875.648C1526.23 875.648 1523.48 873.344 1523.48 869.76C1523.48 866.304 1526.23 864 1529.17 864ZM1490.15 900.416L1481.19 871.744C1479.97 867.776 1481.45 863.296 1486.57 863.296C1489.38 863.296 1491.56 864.96 1492.45 868.992L1493.41 873.088L1507.3 873.088L1508.45 868.352C1509.16 864.896 1511.4 863.296 1514.34 863.296C1518.95 863.296 1520.87 867.136 1519.27 872.192L1510.44 900.416C1508.77 905.792 1505.38 908.928 1500.2 908.928C1494.95 908.928 1491.88 905.792 1490.15 900.416ZM1495.85 883.008L1499.49 896.192L1501.22 896.192L1504.87 883.008L1495.85 883.008ZM1470.34 863.232C1473.28 863.232 1475.91 865.28 1475.91 868.992L1475.91 902.336C1475.91 906.048 1473.47 908.16 1470.66 908.16L1457.22 908.16C1446.98 908.16 1441.15 903.424 1441.15 894.976C1441.15 889.728 1443.71 884.864 1449.54 883.008C1446.15 881.984 1444.8 879.808 1443.84 877.056L1441.79 871.552C1440.07 867.008 1442.82 863.232 1447.17 863.232C1449.86 863.232 1451.71 864.768 1452.55 867.456L1455.11 875.328C1455.94 877.952 1457.35 879.04 1459.91 879.424L1464.83 879.936L1464.83 868.992C1464.83 865.28 1467.52 863.232 1470.34 863.232ZM1464.83 897.152L1464.83 888.384L1458.63 888.384C1454.85 888.384 1452.35 889.984 1452.35 892.992C1452.35 896 1455.23 897.152 1458.69 897.152L1464.83 897.152ZM1430.03 863.232C1433.16 863.232 1435.47 865.664 1435.47 868.992L1435.47 902.656C1435.47 905.984 1433.23 908.928 1429.07 908.928C1426.12 908.928 1424.27 907.2 1422.86 905.216L1408.01 882.88L1408.01 903.104C1408.01 906.496 1405.71 908.928 1402.57 908.928C1399.44 908.928 1397.07 906.496 1397.07 903.104L1397.07 870.592C1397.07 866.752 1399.18 863.232 1403.21 863.232C1406.03 863.232 1408.2 864.832 1409.61 866.816L1424.52 888.704L1424.52 868.992C1424.52 865.664 1426.83 863.232 1430.03 863.232ZM1361.4 863.232C1364.47 863.232 1367.03 865.536 1367.03 868.736L1367.03 896.32L1372.15 896.32C1375.22 896.32 1378.04 898.688 1378.04 902.208C1378.04 905.792 1375.22 908.16 1372.15 908.16L1350.58 908.16C1347.44 908.16 1344.69 905.792 1344.69 902.208C1344.69 898.688 1347.45 896.32 1350.58 896.32L1355.83 896.32L1355.83 868.736C1355.83 865.536 1358.33 863.232 1361.4 863.232ZM1322.13 863.232C1335.05 863.232 1344.01 871.744 1344.01 886.08C1344.01 900.416 1335.05 908.928 1322.12 908.928C1309.13 908.928 1300.17 900.416 1300.17 886.08C1300.17 871.744 1309.13 863.232 1322.13 863.232ZM1322.13 875.072C1315.09 875.072 1311.44 879.104 1311.44 886.08C1311.44 893.12 1315.09 897.088 1322.13 897.088C1329.1 897.088 1332.75 893.12 1332.75 886.08C1332.75 879.104 1329.1 875.072 1322.13 875.072ZM1259.93 863.232C1273.89 863.232 1282.01 871.936 1282.01 886.272C1282.01 900.736 1273.44 908.928 1260.32 908.928C1247.9 908.928 1240.86 902.4 1240.86 896.64C1240.86 892.608 1243.61 890.624 1246.43 890.624C1248.09 890.624 1249.76 891.392 1251.04 892.928C1252.77 895.296 1255.26 896.896 1260.13 896.896C1266.65 896.896 1270.62 894.4 1270.62 886.272C1270.62 877.76 1266.46 875.2 1259.61 875.2C1254.3 875.2 1252.25 877.312 1250.53 879.168C1249.18 880.576 1247.9 881.856 1245.53 881.856C1242.97 881.856 1240.48 879.872 1240.48 876.288C1240.48 869.248 1249.31 863.232 1259.93 863.232ZM1214.13 863.232C1227.05 863.232 1236.01 871.744 1236.01 886.08C1236.01 900.416 1227.05 908.928 1214.12 908.928C1201.13 908.928 1192.17 900.416 1192.17 886.08C1192.17 871.744 1201.13 863.232 1214.13 863.232ZM1214.13 875.072C1207.09 875.072 1203.44 879.104 1203.44 886.08C1203.44 893.12 1207.09 897.088 1214.13 897.088C1221.1 897.088 1224.75 893.12 1224.75 886.08C1224.75 879.104 1221.1 875.072 1214.13 875.072ZM1169.01 864L1180.65 864C1183.73 864 1186.03 866.432 1186.03 869.824L1186.03 902.336C1186.03 905.728 1183.73 908.16 1180.65 908.16L1169.01 908.16C1153.97 908.16 1147.31 897.984 1147.31 886.336C1147.31 874.112 1153.9 864 1169.01 864ZM1174.89 896.64L1174.89 875.52L1169.52 875.52C1162.93 875.52 1158.45 878.144 1158.45 886.144C1158.45 893.824 1162.8 896.64 1169.45 896.64L1174.89 896.64ZM1115.17 864L1135.78 864C1138.85 864 1141.16 866.432 1141.16 869.824L1141.16 902.336C1141.16 905.728 1138.85 908.16 1135.78 908.16L1115.94 908.16C1113 908.16 1110.31 905.856 1110.31 902.336C1110.31 898.816 1113 896.512 1115.94 896.512L1130.02 896.512L1130.02 890.496L1121.96 891.136C1120.48 891.328 1119.33 891.456 1118.44 891.456C1115.81 891.456 1113.96 889.6 1113.96 886.912C1113.96 884.224 1115.81 882.368 1118.63 882.368C1119.46 882.368 1120.55 882.432 1122.08 882.56L1130.02 883.008L1130.02 875.648L1115.17 875.648C1112.23 875.648 1109.48 873.344 1109.48 869.76C1109.48 866.304 1112.23 864 1115.17 864ZM1053.17 875.136L1047.92 871.296C1045.49 869.504 1045.75 866.496 1047.03 864.96C1048.5 863.104 1051.19 862.592 1054.13 864.768L1059.38 868.736C1063.86 865.344 1069.43 863.296 1075.83 863.296C1086.84 863.232 1092.47 868.352 1092.47 875.712C1092.53 881.088 1088.76 884.928 1083.25 887.04C1086.07 889.344 1089.01 892.608 1089.01 897.152C1089.01 904.128 1083.25 908.928 1074.42 908.928C1065.97 908.928 1060.6 904.576 1060.6 898.112C1060.6 892.16 1064.82 888.704 1069.17 886.976L1060.85 880.832C1059.19 883.2 1057.97 885.952 1057.01 888.768C1056.05 891.584 1054.26 892.672 1052.15 892.672C1048.76 892.672 1046.84 889.6 1047.92 885.952C1049.08 882.048 1050.87 878.4 1053.17 875.136ZM1074.68 899.52C1077.68 899.52 1078.96 897.984 1078.96 896.32C1078.96 894.592 1077.62 893.248 1076.08 892.096L1074.42 890.816C1071.48 892.352 1070.45 894.272 1070.45 896.32C1070.45 898.112 1071.86 899.52 1074.68 899.52ZM1074.61 873.408C1071.92 873.408 1069.56 873.984 1067.57 874.944L1077.94 882.88C1080.44 881.92 1082.04 880.128 1082.04 877.952C1082.04 875.392 1079.6 873.408 1074.61 873.408ZM1010.83 863.232C1022.09 863.232 1029.52 868.288 1029.52 874.432C1029.52 877.568 1027.08 879.744 1024.2 879.744C1021.9 879.744 1020.94 878.592 1019.66 877.312C1018.19 875.776 1016.27 874.112 1011.15 874.112C1006.6 874.112 1003.4 875.456 1003.4 878.464C1003.4 881.024 1006.86 881.536 1011.08 882.048C1018.32 882.816 1028.49 883.328 1028.49 894.656C1028.49 903.296 1021.96 908.928 1010.57 908.928C1000.72 908.928 992.716 905.152 992.716 898.56C992.716 895.424 995.34 893.248 997.964 893.248C999.628 893.248 1000.78 893.952 1002 894.912C1003.92 896.448 1005.84 898.112 1010.44 898.112C1014.35 898.112 1017.16 896.832 1017.16 894.464C1017.16 891.648 1013.58 890.944 1009.42 890.624C1002.25 889.92 992.012 889.536 992.012 878.4C992.012 868.544 999.884 863.232 1010.83 863.232ZM967.283 863.232C980.275 863.232 986.163 869.76 986.163 881.28L986.163 903.104C986.163 906.816 983.475 908.928 980.595 908.928C977.715 908.928 975.027 906.88 975.027 903.104L975.027 882.176C975.027 876.8 971.827 874.816 967.283 874.816C962.739 874.816 959.475 876.8 959.475 882.176L959.475 903.104C959.475 906.816 956.787 908.928 953.907 908.928C951.027 908.928 948.339 906.88 948.339 903.104L948.339 881.28C948.339 869.888 954.163 863.232 967.283 863.232ZM935.088 863.232C938.16 863.232 940.656 865.664 940.656 868.992L940.656 902.336C940.656 905.664 938.352 908.16 935.344 908.16L922.8 908.16C912.559 908.16 906.48 901.824 906.48 892.416C906.48 881.792 913.904 876.224 922.864 876.224L929.52 876.224L929.52 868.992C929.52 865.664 932.016 863.232 935.088 863.232ZM929.52 896.832L929.52 887.04L924.016 887.04C919.792 887.04 917.296 888.384 917.296 892.032C917.296 895.872 919.792 896.832 923.952 896.832L929.52 896.832ZM895.275 863.232C898.347 863.232 900.843 865.664 900.843 868.992L900.843 902.336C900.843 905.664 898.539 908.16 895.531 908.16L882.987 908.16C872.747 908.16 866.667 901.824 866.667 892.416C866.667 881.792 874.091 876.224 883.051 876.224L889.707 876.224L889.707 868.992C889.707 865.664 892.203 863.232 895.275 863.232ZM889.707 896.832L889.707 887.04L884.203 887.04C879.979 887.04 877.483 888.384 877.483 892.032C877.483 895.872 879.979 896.832 884.139 896.832L889.707 896.832ZM841.125 863.232C854.053 863.232 863.013 871.744 863.013 886.08C863.013 900.416 854.053 908.928 841.125 908.928C828.133 908.928 819.173 900.416 819.173 886.08C819.173 871.744 828.133 863.232 841.125 863.232ZM841.125 875.072C834.085 875.072 830.437 879.104 830.437 886.08C830.437 893.12 834.085 897.088 841.125 897.088C848.101 897.088 851.749 893.12 851.749 886.08C851.749 879.104 848.101 875.072 841.125 875.072ZM807.463 863.232C810.407 863.232 813.031 865.28 813.031 868.992L813.031 902.336C813.031 906.048 810.599 908.16 807.783 908.16L794.343 908.16C784.102 908.16 778.279 903.424 778.279 894.976C778.279 889.728 780.839 884.864 786.663 883.008C783.271 881.984 781.927 879.808 780.967 877.056L778.919 871.552C777.191 867.008 779.943 863.232 784.295 863.232C786.983 863.232 788.839 864.768 789.671 867.456L792.231 875.328C793.063 877.952 794.471 879.04 797.031 879.424L801.959 879.936L801.959 868.992C801.959 865.28 804.647 863.232 807.463 863.232ZM801.959 897.152L801.959 888.384L795.751 888.384C791.975 888.384 789.479 889.984 789.479 892.992C789.479 896 792.359 897.152 795.815 897.152L801.959 897.152ZM760.022 863.232C763.094 863.232 765.654 865.536 765.654 868.736L765.654 896.32L770.774 896.32C773.846 896.32 776.662 898.688 776.662 902.208C776.662 905.792 773.846 908.16 770.774 908.16L749.206 908.16C746.07 908.16 743.318 905.792 743.318 902.208C743.318 898.688 746.07 896.32 749.206 896.32L754.454 896.32L754.454 868.736C754.454 865.536 756.95 863.232 760.022 863.232ZM710.585 863.232C713.657 863.232 716.217 865.536 716.217 868.736L716.217 896.32L721.337 896.32C724.409 896.32 727.225 898.688 727.225 902.208C727.225 905.792 724.409 908.16 721.337 908.16L699.769 908.16C696.632 908.16 693.88 905.792 693.88 902.208C693.88 898.688 696.633 896.32 699.769 896.32L705.017 896.32L705.017 868.736C705.017 865.536 707.513 863.232 710.585 863.232ZM684.025 863.232C686.969 863.232 689.593 865.28 689.593 869.056L689.593 903.104C689.593 906.816 686.905 908.928 684.025 908.928C681.145 908.928 678.457 906.88 678.457 903.104L678.457 892.608L662.777 892.608L662.777 903.104C662.777 906.816 660.025 908.928 657.209 908.928C654.265 908.928 651.641 906.88 651.641 903.104L651.641 869.056C651.641 865.344 654.329 863.232 657.209 863.232C660.089 863.232 662.777 865.28 662.777 869.056L662.777 881.216L678.457 881.216L678.457 869.056C678.457 865.344 681.209 863.232 684.025 863.232ZM617.609 864L638.217 864C641.289 864 643.593 866.432 643.593 869.824L643.593 902.336C643.593 905.728 641.289 908.16 638.217 908.16L618.377 908.16C615.433 908.16 612.745 905.856 612.745 902.336C612.745 898.816 615.433 896.512 618.377 896.512L632.457 896.512L632.457 890.496L624.393 891.136C622.921 891.328 621.769 891.456 620.873 891.456C618.249 891.456 616.393 889.6 616.393 886.912C616.393 884.224 618.249 882.368 621.065 882.368C621.897 882.368 622.985 882.432 624.521 882.56L632.457 883.008L632.457 875.648L617.609 875.648C614.665 875.648 611.913 873.344 611.913 869.76C611.913 866.304 614.665 864 617.609 864ZM586.65 863.232C589.594 863.232 592.218 865.344 592.218 869.056L592.218 903.104C592.218 906.816 589.594 908.928 586.65 908.928C583.77 908.928 581.082 906.816 581.082 903.104L581.082 869.056C581.082 865.344 583.77 863.232 586.65 863.232ZM567.653 863.232C570.789 863.232 573.093 865.664 573.093 868.992L573.093 902.656C573.093 905.984 570.853 908.928 566.693 908.928C563.749 908.928 561.893 907.2 560.485 905.216L545.637 882.88L545.637 903.104C545.637 906.496 543.333 908.928 540.197 908.928C537.061 908.928 534.693 906.496 534.693 903.104L534.693 870.592C534.693 866.752 536.805 863.232 540.837 863.232C543.653 863.232 545.829 864.832 547.237 866.816L562.149 888.704L562.149 868.992C562.149 865.664 564.453 863.232 567.653 863.232ZM509.632 864L521.28 864C524.352 864 526.656 866.432 526.656 869.824L526.656 902.336C526.656 905.728 524.352 908.16 521.28 908.16L509.631 908.16C494.592 908.16 487.935 897.984 487.936 886.336C487.936 874.112 494.528 864 509.632 864ZM515.52 896.64L515.52 875.52L510.144 875.52C503.552 875.52 499.072 878.144 499.072 886.144C499.072 893.824 503.424 896.64 510.08 896.64L515.52 896.64ZM455.797 864L476.405 864C479.477 864 481.781 866.432 481.781 869.824L481.781 902.336C481.781 905.728 479.477 908.16 476.405 908.16L456.565 908.16C453.621 908.16 450.933 905.856 450.933 902.336C450.933 898.816 453.621 896.512 456.565 896.512L470.645 896.512L470.645 890.496L462.581 891.136C461.109 891.328 459.957 891.456 459.061 891.456C456.437 891.456 454.581 889.6 454.581 886.912C454.581 884.224 456.437 882.368 459.253 882.368C460.085 882.368 461.173 882.432 462.709 882.56L470.645 883.008L470.645 875.648L455.797 875.648C452.853 875.648 450.101 873.344 450.101 869.76C450.101 866.304 452.853 864 455.797 864ZM439.213 863.232C442.285 863.232 444.781 865.664 444.781 868.992L444.781 902.336C444.781 905.664 442.477 908.16 439.469 908.16L426.925 908.16C416.684 908.16 410.605 901.824 410.605 892.416C410.605 881.792 418.029 876.224 426.989 876.224L433.645 876.224L433.645 868.992C433.645 865.664 436.141 863.232 439.213 863.232ZM433.645 896.832L433.645 887.04L428.141 887.04C423.917 887.04 421.421 888.384 421.421 892.032C421.421 895.872 423.917 896.832 428.077 896.832L433.645 896.832ZM378.984 864L399.592 864C402.664 864 404.968 866.432 404.968 869.824L404.968 902.336C404.968 905.728 402.664 908.16 399.592 908.16L379.752 908.16C376.808 908.16 374.12 905.856 374.12 902.336C374.12 898.816 376.808 896.512 379.752 896.512L393.832 896.512L393.832 890.496L385.768 891.136C384.296 891.328 383.144 891.456 382.248 891.456C379.624 891.456 377.768 889.6 377.768 886.912C377.768 884.224 379.624 882.368 382.44 882.368C383.272 882.368 384.36 882.432 385.896 882.56L393.832 883.008L393.832 875.648L378.984 875.648C376.04 875.648 373.288 873.344 373.288 869.76C373.288 866.304 376.04 864 378.984 864ZM362.528 863.232C365.664 863.232 367.968 865.664 367.968 868.992L367.968 902.656C367.968 905.984 365.728 908.928 361.568 908.928C358.624 908.928 356.768 907.2 355.36 905.216L340.512 882.88L340.512 903.104C340.512 906.496 338.208 908.928 335.072 908.928C331.936 908.928 329.568 906.496 329.568 903.104L329.568 870.592C329.568 866.752 331.68 863.232 335.712 863.232C338.528 863.232 340.704 864.832 342.112 866.816L357.024 888.704L357.024 868.992C357.024 865.664 359.328 863.232 362.528 863.232ZM304.507 864L316.155 864C319.227 864 321.531 866.432 321.531 869.824L321.531 902.336C321.531 905.728 319.227 908.16 316.155 908.16L304.506 908.16C289.467 908.16 282.81 897.984 282.811 886.336C282.811 874.112 289.403 864 304.507 864ZM310.395 896.64L310.395 875.52L305.019 875.52C298.427 875.52 293.947 878.144 293.947 886.144C293.947 893.824 298.299 896.64 304.955 896.64L310.395 896.64ZM250.672 864L271.28 864C274.352 864 276.656 866.432 276.656 869.824L276.656 902.336C276.656 905.728 274.352 908.16 271.28 908.16L251.44 908.16C248.496 908.16 245.808 905.856 245.808 902.336C245.808 898.816 248.496 896.512 251.44 896.512L265.52 896.512L265.52 890.496L257.456 891.136C255.984 891.328 254.832 891.456 253.936 891.456C251.312 891.456 249.456 889.6 249.456 886.912C249.456 884.224 251.312 882.368 254.128 882.368C254.96 882.368 256.048 882.432 257.584 882.56L265.52 883.008L265.52 875.648L250.672 875.648C247.728 875.648 244.976 873.344 244.976 869.76C244.976 866.304 247.728 864 250.672 864ZM234.216 863.232C237.352 863.232 239.656 865.664 239.656 868.992L239.656 902.656C239.656 905.984 237.416 908.928 233.256 908.928C230.312 908.928 228.456 907.2 227.048 905.216L212.2 882.88L212.2 903.104C212.2 906.496 209.896 908.928 206.76 908.928C203.623 908.928 201.255 906.496 201.255 903.104L201.256 870.592C201.256 866.752 203.368 863.232 207.4 863.232C210.216 863.232 212.392 864.832 213.8 866.816L228.712 888.704L228.712 868.992C228.712 865.664 231.016 863.232 234.216 863.232ZM180.335 863.232C183.407 863.232 185.967 865.536 185.967 868.736L185.967 896.32L191.087 896.32C194.159 896.32 196.975 898.688 196.975 902.208C196.975 905.792 194.159 908.16 191.087 908.16L169.519 908.16C166.382 908.16 163.63 905.792 163.63 902.208C163.63 898.688 166.383 896.32 169.519 896.32L174.767 896.32L174.767 868.736C174.767 865.536 177.263 863.232 180.335 863.232ZM130.449 863.232C134.417 863.232 137.425 865.728 138.513 869.76L146.961 900.992C148.241 905.664 145.169 908.992 141.393 908.992C138.065 908.992 135.761 907.136 135.057 903.424L129.873 879.488L129.489 879.488L124.049 902.976C123.281 906.496 120.977 908.928 117.457 908.928C113.937 908.928 111.633 906.496 110.865 902.976L105.425 879.488L105.041 879.488L99.857 903.424C99.153 907.136 96.913 908.992 93.521 908.992C89.809 908.992 86.673 905.664 87.953 900.992L96.401 869.76C97.489 865.728 100.497 863.232 104.465 863.232C108.433 863.232 111.441 865.856 112.401 870.08L117.265 890.432L117.649 890.432L122.513 870.08C123.537 865.856 126.545 863.232 130.449 863.232ZM56.5465 864L77.1545 864C80.2265 864 82.5305 866.432 82.5305 869.824L82.5305 902.336C82.5305 905.728 80.2265 908.16 77.1545 908.16L57.3145 908.16C54.3705 908.16 51.6825 905.856 51.6825 902.336C51.6825 898.816 54.3705 896.512 57.3145 896.512L71.3945 896.512L71.3945 890.496L63.3305 891.136C61.8585 891.328 60.7065 891.456 59.8105 891.456C57.1865 891.456 55.3305 889.6 55.3305 886.912C55.3305 884.224 57.1865 882.368 60.0025 882.368C60.8345 882.368 61.9225 882.432 63.4585 882.56L71.3945 883.008L71.3945 875.648L56.5465 875.648C53.6025 875.648 50.8505 873.344 50.8505 869.76C50.8505 866.304 53.6025 864 56.5465 864ZM24.1545 864L40.1545 864C43.2265 864 45.5305 866.432 45.5305 869.76L45.5305 902.336C45.5305 905.664 43.2265 908.16 40.1545 908.16L25.4345 908.16C13.1465 908.16 10.4585 901.312 10.4585 896.192C10.4585 891.52 13.0185 887.552 18.4585 886.08C12.1225 885.376 9.1145 881.984 9.1145 876.224C9.1145 870.72 13.1465 864 24.1545 864ZM34.3945 896.832L34.3945 889.472L27.0985 889.472C23.6425 889.472 21.6585 890.624 21.6585 893.376C21.6585 896 24.0265 896.832 27.5465 896.832L34.3945 896.832ZM34.3945 882.816L34.3945 875.136L26.3945 875.136C22.2345 875.136 20.4425 876.672 20.4425 879.104C20.4425 881.536 22.4905 882.816 25.4345 882.816L34.3945 882.816Z"
            fill="white" />
        <path
            clip-path="url(#clip0_128_4)"
            d="M56.768 816.477C56.768 830.429 48.064 838.557 33.728 838.557C19.264 838.557 11.072 829.981
        11.072 816.861C11.072 804.445 17.6 797.405 23.36 797.405C27.392 797.405 29.376 800.157
        29.376 802.973C29.376 804.637 28.608 806.301 27.072 807.581C24.704 809.309 23.104 811.805
        23.104 816.669C23.104 823.197 25.6 827.165 33.728 827.165C42.24 827.165 44.8 823.005 44.8
        816.157C44.8 810.845 42.688 808.797 40.832 807.069C39.424 805.725 38.144 804.445 38.144
        802.077C38.144 799.517 40.128 797.021 43.712 797.021C50.752 797.021 56.768 805.853 56.768
        816.477ZM56.768 767.469C56.768 780.397 48.256 789.357 33.92 789.357C19.584 789.357 11.072
        780.397 11.072 767.469C11.072 754.477 19.584 745.517 33.92 745.517C48.256 745.517 56.768
        754.477 56.768 767.469ZM44.928 767.469C44.928 760.429 40.896 756.781 33.92 756.781C26.88
        756.781 22.912 760.429 22.912 767.469C22.912 774.445 26.88 778.093 33.92 778.093C40.896
        778.093 44.928 774.445 44.928 767.469ZM56 719.15L56 730.798C56 733.87 53.568 736.174 50.176
        736.174L17.664 736.174C14.272 736.174 11.84 733.87 11.84 730.798L11.84 719.15C11.84 704.11
        22.016 697.454 33.664 697.454C45.888 697.454 56 704.046 56 719.15ZM23.36 725.038L44.48
        725.038L44.48 719.662C44.48 713.07 41.856 708.59 33.856 708.59C26.176 708.59 23.36 712.942
        23.36 719.598L23.36 725.038ZM56.768 682.531C56.768 685.475 54.656 688.099 50.944
        688.099L16.896 688.099C13.184 688.099 11.072 685.475 11.072 682.531C11.072 679.651 13.184
        676.963 16.896 676.963L50.944 676.963C54.656 676.963 56.768 679.651 56.768 682.531ZM56.768
        660.334C56.768 663.47 54.336 665.774 51.008 665.774L17.344 665.774C14.016 665.774 11.072
        663.534 11.072 659.374C11.072 656.43 12.8 654.574 14.784 653.166L37.12 638.318L16.896
        638.318C13.504 638.318 11.072 636.014 11.072 632.878C11.072 629.742 13.504 627.374 16.896
        627.374L49.408 627.374C53.248 627.374 56.768 629.486 56.768 633.518C56.768 636.334 55.168
        638.51 53.184 639.918L31.296 654.83L51.008 654.83C54.336 654.83 56.768 657.134 56.768
        660.334ZM56.64 599.945C56.64 611.017 48.448 618.057 33.92 618.057C19.328 618.057 11.072
        608.841 11.072 595.593C11.072 583.689 16.576 576.329 22.144 576.329C25.28 576.329 27.904
        578.697 27.904 581.961C27.904 583.817 27.136 584.841 26.176 585.993C24.704 587.721 22.784
        589.513 22.784 595.465C22.784 602.249 25.536 606.665 33.92 606.665C42.112 606.665 45.504
        602.953 45.504 595.977C45.504 590.473 42.88 587.209 39.36 586.377C38.656 586.313 38.528
        586.761 38.528 587.593C38.592 589.065 38.72 590.729 38.848 592.137C38.912 594.121 37.952
        595.977 35.008 595.977C32.704 595.977 31.232 594.377 31.232 592.073L31.296 579.977C31.296
        576.841 33.28 574.921 36.288 574.921L51.392 574.921C54.592 574.921 56.64 577.097 56.64
        579.721C56.64 582.665 55.04 584.521 51.904 584.777L45.184 585.417L45.184 586.249C51.904
        587.785 56.64 591.689 56.64 599.945ZM44.864 510.566L48.704 505.318C50.496 502.886 53.504
        503.142 55.04 504.422C56.896 505.894 57.408 508.582 55.232 511.526L51.264 516.774C54.656
        521.254 56.704 526.822 56.704 533.222C56.768 544.23 51.648 549.862 44.288 549.862C38.912
        549.926 35.072 546.15 32.96 540.646C30.656 543.462 27.392 546.406 22.848 546.406C15.872
        546.406 11.072 540.646 11.072 531.814C11.072 523.366 15.424 517.99 21.888 517.99C27.84
        517.99 31.296 522.214 33.024 526.566L39.168 518.246C36.8 516.582 34.048 515.366 31.232
        514.406C28.416 513.446 27.328 511.654 27.328 509.542C27.328 506.15 30.4 504.23 34.048
        505.318C37.952 506.47 41.6 508.262 44.864 510.566ZM20.48 532.07C20.48 535.078 22.016 536.358
        23.68 536.358C25.408 536.358 26.752 535.014 27.904 533.478L29.184 531.814C27.648 528.87
        25.728 527.846 23.68 527.846C21.888 527.846 20.48 529.254 20.48 532.07ZM46.592
        532.006C46.592 529.318 46.016 526.95 45.056 524.966L37.12 535.334C38.08 537.83 39.872 539.43
        42.048 539.43C44.608 539.43 46.592 536.998 46.592 532.006ZM56.768 461.822C56.768 473.086
        51.712 480.51 45.568 480.51C42.432 480.51 40.256 478.078 40.256 475.198C40.256 472.894
        41.408 471.934 42.688 470.654C44.224 469.182 45.888 467.262 45.888 462.142C45.888 457.598
        44.544 454.398 41.536 454.398C38.976 454.398 38.464 457.854 37.952 462.078C37.184 469.31
        36.672 479.486 25.344 479.486C16.704 479.486 11.072 472.958 11.072 461.566C11.072 451.71
        14.848 443.71 21.44 443.71C24.576 443.71 26.752 446.334 26.752 448.958C26.752 450.622 26.048
        451.774 25.088 452.99C23.552 454.91 21.888 456.83 21.888 461.438C21.888 465.342 23.168
        468.158 25.536 468.158C28.352 468.158 29.056 464.574 29.376 460.414C30.08 453.246 30.464
        443.006 41.6 443.006C51.456 443.006 56.768 450.878 56.768 461.822ZM56.768 421.753C56.768
        424.825 54.464 427.385 51.264 427.385L23.68 427.385L23.68 432.505C23.68 435.577 21.312
        438.393 17.792 438.393C14.208 438.393 11.84 435.577 11.84 432.505L11.84 410.937C11.84
        407.801 14.208 405.049 17.792 405.049C21.312 405.049 23.68 407.801 23.68 410.937L23.68
        416.185L51.264 416.185C54.464 416.185 56.768 418.681 56.768 421.753ZM56.768 391.994C56.768
        394.938 54.72 397.562 51.008 397.562L17.664 397.562C13.952 397.562 11.84 395.13 11.84
        392.314L11.84 378.874C11.84 368.634 16.576 362.81 25.024 362.81C30.272 362.81 35.136 365.37
        36.992 371.194C38.016 367.802 40.192 366.458 42.944 365.498L48.448 363.45C52.992 361.722
        56.768 364.474 56.768 368.826C56.768 371.514 55.232 373.37 52.544 374.202L44.672
        376.762C42.048 377.594 40.96 379.002 40.576 381.562L40.064 386.49L51.008 386.49C54.72 386.49
        56.768 389.178 56.768 391.994ZM22.848 386.49L31.616 386.49L31.616 380.282C31.616 376.506
        30.016 374.01 27.008 374.01C24 374.01 22.848 376.89 22.848 380.346L22.848 386.49ZM56
        327.94L56 348.548C56 351.62 53.568 353.924 50.176 353.924L17.664 353.924C14.272 353.924
        11.84 351.62 11.84 348.548L11.84 328.708C11.84 325.764 14.144 323.076 17.664 323.076C21.184
        323.076 23.488 325.764 23.488 328.708L23.488 342.788L29.504 342.788L28.864 334.724C28.672
        333.252 28.544 332.1 28.544 331.204C28.544 328.58 30.4 326.724 33.088 326.724C35.776 326.724
        37.632 328.58 37.632 331.396C37.632 332.228 37.568 333.316 37.44 334.852L36.992
        342.788L44.352 342.788L44.352 327.94C44.352 324.996 46.656 322.244 50.24 322.244C53.696
        322.244 56 324.996 56 327.94ZM19.584 285.718L48.256 276.758C52.224 275.542 56.704 277.014
        56.704 282.134C56.704 284.95 55.04 287.126 51.008 288.022L46.912 288.982L46.912
        302.87L51.648 304.022C55.104 304.726 56.704 306.966 56.704 309.91C56.704 314.518 52.864
        316.438 47.808 314.838L19.584 306.006C14.208 304.342 11.072 300.95 11.072 295.766C11.072
        290.518 14.208 287.446 19.584 285.718ZM36.992 291.414L23.808 295.062L23.808 296.79L36.992
        300.438L36.992 291.414ZM56.768 262.834C56.768 266.226 54.08 268.274 51.008 268.274L20.416
        268.274C14.848 268.274 11.072 265.202 11.072 259.378C11.072 253.554 14.208 251.314 19.84
        249.714L41.28 243.122L19.84 236.722C14.464 235.186 11.072 232.754 11.072 227.058C11.072
        221.426 14.848 218.162 19.84 218.162L51.008 218.162C54.08 218.162 56.768 220.082 56.768
        223.474C56.768 226.866 54.08 228.914 51.008 228.914L26.496 228.914L26.496 229.042L51.968
        236.978C54.912 237.81 56.768 239.986 56.768 243.122C56.768 246.194 55.04 248.562 52.096
        249.458L26.496 257.394L26.496 257.586L51.008 257.586C54.08 257.586 56.768 259.442 56.768
        262.834ZM56.768 201.319C56.768 204.263 54.656 206.887 50.944 206.887L16.896 206.887C13.184
        206.887 11.072 204.263 11.072 201.319C11.072 198.439 13.184 195.751 16.896 195.751L50.944
        195.751C54.656 195.751 56.768 198.439 56.768 201.319ZM56.768 179.122C56.768 182.258 54.336
        184.562 51.008 184.562L17.344 184.562C14.016 184.562 11.072 182.322 11.072 178.162C11.072
        175.218 12.8 173.362 14.784 171.954L37.12 157.106L16.896 157.106C13.504 157.106 11.072
        154.802 11.072 151.666C11.072 148.53 13.504 146.162 16.896 146.162L49.408 146.162C53.248
        146.162 56.768 148.274 56.768 152.306C56.768 155.122 55.168 157.298 53.184 158.706L31.296
        173.618L51.008 173.618C54.336 173.618 56.768 175.922 56.768 179.122ZM56.64 118.732C56.64
        129.804 48.448 136.844 33.92 136.844C19.328 136.844 11.072 127.628 11.072 114.38C11.072
        102.476 16.576 95.1162 22.144 95.1162C25.28 95.1162 27.904 97.4842 27.904 100.748C27.904
        102.604 27.136 103.628 26.176 104.78C24.704 106.508 22.784 108.3 22.784 114.252C22.784
        121.036 25.536 125.452 33.92 125.452C42.112 125.452 45.504 121.74 45.504 114.764C45.504
        109.26 42.88 105.996 39.36 105.164C38.656 105.1 38.528 105.548 38.528 106.38C38.592 107.852
        38.72 109.516 38.848 110.924C38.912 112.908 37.952 114.764 35.008 114.764C32.704 114.764
        31.232 113.164 31.232 110.86L31.296 98.7642C31.296 95.6282 33.28 93.7082 36.288
        93.7082L51.392 93.7082C54.592 93.7082 56.64 95.8842 56.64 98.5082C56.64 101.452 55.04
        103.308 51.904 103.564L45.184 104.204L45.184 105.036C51.904 106.572 56.64 110.476 56.64
        118.732Z"
            fill="white" />
        <path
            clip-path="url(#clip0_128_4)"
            d="M1540.23 109.395C1540.23 105.427 1542.73 102.419 1546.76 101.331L1577.99 92.8827C1582.66 91.6027 1585.99 94.6747 1585.99 98.4507C1585.99 101.779 1584.14 104.083 1580.42 104.787L1556.49 109.971L1556.49 110.355L1579.98 115.795C1583.5 116.563 1585.93 118.867 1585.93 122.387C1585.93 125.907 1583.5 128.211 1579.98 128.979L1556.49 134.419L1556.49 134.803L1580.42 139.987C1584.14 140.691 1585.99 142.931 1585.99 146.323C1585.99 150.035 1582.66 153.171 1577.99 151.891L1546.76 143.443C1542.73 142.355 1540.23 139.347 1540.23 135.379C1540.23 131.411 1542.86 128.403 1547.08 127.443L1567.43 122.579L1567.43 122.195L1547.08 117.331C1542.86 116.307 1540.23 113.299 1540.23 109.395ZM1577.42 182.007L1548.74 190.967C1544.78 192.183 1540.3 190.711 1540.3 185.591C1540.3 182.775 1541.96 180.599 1545.99 179.703L1550.09 178.743L1550.09 164.855L1545.35 163.703C1541.9 162.999 1540.3 160.759 1540.3 157.815C1540.3 153.207 1544.14 151.287 1549.19 152.887L1577.42 161.719C1582.79 163.383 1585.93 166.775 1585.93 171.959C1585.93 177.207 1582.79 180.279 1577.42 182.007ZM1560.01 176.311L1573.19 172.663L1573.19 170.935L1560.01 167.287L1560.01 176.311ZM1540.23 205.134C1540.23 202.062 1542.54 199.502 1545.74 199.502L1573.32 199.502L1573.32 194.382C1573.32 191.31 1575.69 188.494 1579.21 188.494C1582.79 188.494 1585.16 191.31 1585.16 194.382L1585.16 215.95C1585.16 219.086 1582.79 221.838 1579.21 221.838C1575.69 221.838 1573.32 219.086 1573.32 215.95L1573.32 210.702L1545.74 210.702C1542.54 210.702 1540.23 208.206 1540.23 205.134ZM1540.23 244.598C1540.23 230.646 1548.94 222.518 1563.27 222.518C1577.74 222.518 1585.93 231.094 1585.93 244.214C1585.93 256.63 1579.4 263.67 1573.64 263.67C1569.61 263.67 1567.62 260.918 1567.62 258.102C1567.62 256.438 1568.39 254.774 1569.93 253.494C1572.3 251.766 1573.9 249.27 1573.9 244.406C1573.9 237.878 1571.4 233.91 1563.27 233.91C1554.76 233.91 1552.2 238.07 1552.2 244.918C1552.2 250.23 1554.31 252.278 1556.17 254.006C1557.58 255.35 1558.86 256.63 1558.86 258.998C1558.86 261.558 1556.87 264.054 1553.29 264.054C1546.25 264.054 1540.23 255.222 1540.23 244.598ZM1540.23 275.569C1540.23 272.625 1542.28 270.001 1546.06 270.001L1580.1 270.001C1583.82 270.001 1585.93 272.689 1585.93 275.569C1585.93 278.449 1583.88 281.137 1580.1 281.137L1569.61 281.137L1569.61 296.817L1580.1 296.817C1583.82 296.817 1585.93 299.569 1585.93 302.385C1585.93 305.329 1583.88 307.953 1580.1 307.953L1546.06 307.953C1542.34 307.953 1540.23 305.265 1540.23 302.385C1540.23 299.505 1542.28 296.817 1546.06 296.817L1558.22 296.817L1558.22 281.137L1546.06 281.137C1542.34 281.137 1540.23 278.385 1540.23 275.569ZM1552.14 366.546L1548.3 371.794C1546.5 374.226 1543.5 373.97 1541.96 372.69C1540.1 371.218 1539.59 368.53 1541.77 365.586L1545.74 360.338C1542.34 355.858 1540.3 350.29 1540.3 343.89C1540.23 332.882 1545.35 327.25 1552.71 327.25C1558.09 327.186 1561.93 330.962 1564.04 336.466C1566.34 333.65 1569.61 330.706 1574.15 330.706C1581.13 330.706 1585.93 336.466 1585.93 345.298C1585.93 353.746 1581.58 359.122 1575.11 359.122C1569.16 359.122 1565.7 354.898 1563.98 350.546L1557.83 358.866C1560.2 360.53 1562.95 361.746 1565.77 362.706C1568.58 363.666 1569.67 365.458 1569.67 367.57C1569.67 370.962 1566.6 372.882 1562.95 371.794C1559.05 370.642 1555.4 368.85 1552.14 366.546ZM1576.52 345.042C1576.52 342.034 1574.98 340.754 1573.32 340.754C1571.59 340.754 1570.25 342.098 1569.1 343.634L1567.82 345.298C1569.35 348.242 1571.27 349.266 1573.32 349.266C1575.11 349.266 1576.52 347.858 1576.52 345.042ZM1550.41 345.106C1550.41 347.794 1550.98 350.162 1551.94 352.146L1559.88 341.778C1558.92 339.282 1557.13 337.682 1554.95 337.682C1552.39 337.682 1550.41 340.114 1550.41 345.106ZM1540.23 412.411C1540.23 398.459 1548.94 390.331 1563.27 390.331C1577.74 390.331 1585.93 398.907 1585.93 412.027C1585.93 424.443 1579.4 431.483 1573.64 431.483C1569.61 431.483 1567.62 428.731 1567.62 425.915C1567.62 424.251 1568.39 422.587 1569.93 421.307C1572.3 419.579 1573.9 417.083 1573.9 412.219C1573.9 405.691 1571.4 401.723 1563.27 401.723C1554.76 401.723 1552.2 405.883 1552.2 412.731C1552.2 418.043 1554.31 420.091 1556.17 421.819C1557.58 423.163 1558.86 424.443 1558.86 426.811C1558.86 429.371 1556.87 431.867 1553.29 431.867C1546.25 431.867 1540.23 423.035 1540.23 412.411ZM1540.23 458.219C1540.23 445.291 1548.74 436.331 1563.08 436.331C1577.42 436.331 1585.93 445.291 1585.93 458.219C1585.93 471.211 1577.42 480.171 1563.08 480.171C1548.74 480.171 1540.23 471.211 1540.23 458.219ZM1552.07 458.219C1552.07 465.259 1556.1 468.907 1563.08 468.907C1570.12 468.907 1574.09 465.259 1574.09 458.219C1574.09 451.243 1570.12 447.595 1563.08 447.595C1556.1 447.595 1552.07 451.243 1552.07 458.219ZM1541 503.337L1541 491.689C1541 488.617 1543.43 486.313 1546.82 486.313L1579.34 486.313C1582.73 486.313 1585.16 488.617 1585.16 491.689L1585.16 503.337C1585.16 518.377 1574.98 525.033 1563.34 525.033C1551.11 525.033 1541 518.441 1541 503.337ZM1573.64 497.449L1552.52 497.449L1552.52 502.825C1552.52 509.417 1555.14 513.897 1563.14 513.897C1570.82 513.897 1573.64 509.545 1573.64 502.889L1573.64 497.449ZM1541 557.172L1541 536.564C1541 533.492 1543.43 531.188 1546.82 531.188L1579.34 531.188C1582.73 531.188 1585.16 533.492 1585.16 536.564L1585.16 556.404C1585.16 559.348 1582.86 562.036 1579.34 562.036C1575.82 562.036 1573.51 559.348 1573.51 556.404L1573.51 542.324L1567.5 542.324L1568.14 550.388C1568.33 551.86 1568.46 553.012 1568.46 553.908C1568.46 556.532 1566.6 558.388 1563.91 558.388C1561.22 558.388 1559.37 556.532 1559.37 553.716C1559.37 552.884 1559.43 551.796 1559.56 550.26L1560.01 542.324L1552.65 542.324L1552.65 557.172C1552.65 560.116 1550.34 562.868 1546.76 562.868C1543.3 562.868 1541 560.116 1541 557.172ZM1552.14 619.171L1548.3 624.419C1546.5 626.851 1543.5 626.595 1541.96 625.315C1540.1 623.843 1539.59 621.155 1541.77 618.211L1545.74 612.963C1542.34 608.483 1540.3 602.915 1540.3 596.515C1540.23 585.507 1545.35 579.875 1552.71 579.875C1558.09 579.811 1561.93 583.587 1564.04 589.091C1566.34 586.275 1569.61 583.331 1574.15 583.331C1581.13 583.331 1585.93 589.091 1585.93 597.923C1585.93 606.371 1581.58 611.747 1575.11 611.747C1569.16 611.747 1565.7 607.523 1563.98 603.171L1557.83 611.491C1560.2 613.155 1562.95 614.371 1565.77 615.331C1568.58 616.291 1569.67 618.083 1569.67 620.195C1569.67 623.587 1566.6 625.507 1562.95 624.419C1559.05 623.267 1555.4 621.475 1552.14 619.171ZM1576.52 597.667C1576.52 594.659 1574.98 593.379 1573.32 593.379C1571.59 593.379 1570.25 594.723 1569.1 596.259L1567.82 597.923C1569.35 600.867 1571.27 601.891 1573.32 601.891C1575.11 601.891 1576.52 600.483 1576.52 597.667ZM1550.41 597.731C1550.41 600.419 1550.98 602.787 1551.94 604.771L1559.88 594.403C1558.92 591.907 1557.13 590.307 1554.95 590.307C1552.39 590.307 1550.41 592.739 1550.41 597.731ZM1541 667.724L1541 650.38C1541 647.052 1543.05 644.876 1546.82 644.876L1580.1 644.876C1583.82 644.876 1585.93 647.564 1585.93 650.444C1585.93 653.324 1583.88 656.012 1580.1 656.012L1552.65 656.012L1552.65 667.724C1552.65 670.732 1550.28 673.42 1546.76 673.42C1543.24 673.42 1541 670.732 1541 667.724ZM1541 703.672L1541 683.064C1541 679.992 1543.43 677.688 1546.82 677.688L1579.34 677.688C1582.73 677.688 1585.16 679.992 1585.16 683.064L1585.16 702.904C1585.16 705.848 1582.86 708.536 1579.34 708.536C1575.82 708.536 1573.51 705.848 1573.51 702.904L1573.51 688.824L1567.5 688.824L1568.14 696.888C1568.33 698.36 1568.46 699.512 1568.46 700.408C1568.46 703.032 1566.6 704.888 1563.91 704.888C1561.22 704.888 1559.37 703.032 1559.37 700.216C1559.37 699.384 1559.43 698.296 1559.56 696.76L1560.01 688.824L1552.65 688.824L1552.65 703.672C1552.65 706.616 1550.34 709.368 1546.76 709.368C1543.3 709.368 1541 706.616 1541 703.672ZM1577.42 742.695L1548.74 751.655C1544.78 752.871 1540.3 751.399 1540.3 746.279C1540.3 743.463 1541.96 741.287 1545.99 740.391L1550.09 739.431L1550.09 725.543L1545.35 724.391C1541.9 723.687 1540.3 721.447 1540.3 718.503C1540.3 713.895 1544.14 711.975 1549.19 713.575L1577.42 722.407C1582.79 724.071 1585.93 727.463 1585.93 732.647C1585.93 737.895 1582.79 740.967 1577.42 742.695ZM1560.01 736.999L1573.19 733.351L1573.19 731.623L1560.01 727.975L1560.01 736.999ZM1540.23 762.506C1540.23 759.562 1542.28 756.938 1545.99 756.938L1579.34 756.938C1583.05 756.938 1585.16 759.37 1585.16 762.186L1585.16 775.626C1585.16 785.866 1580.42 791.69 1571.98 791.69C1566.73 791.69 1561.86 789.13 1560.01 783.306C1558.98 786.698 1556.81 788.042 1554.06 789.002L1548.55 791.05C1544.01 792.778 1540.23 790.026 1540.23 785.674C1540.23 782.986 1541.77 781.13 1544.46 780.298L1552.33 777.738C1554.95 776.906 1556.04 775.498 1556.42 772.938L1556.94 768.01L1545.99 768.01C1542.28 768.01 1540.23 765.322 1540.23 762.506ZM1574.15 768.01L1565.38 768.01L1565.38 774.218C1565.38 777.994 1566.98 780.49 1569.99 780.49C1573 780.49 1574.15 777.61 1574.15 774.154L1574.15 768.01ZM1540.23 802.816C1540.23 799.68 1542.66 797.376 1545.99 797.376L1579.66 797.376C1582.98 797.376 1585.93 799.616 1585.93 803.776C1585.93 806.72 1584.2 808.576 1582.22 809.984L1559.88 824.832L1580.1 824.832C1583.5 824.832 1585.93 827.136 1585.93 830.272C1585.93 833.408 1583.5 835.776 1580.1 835.776L1547.59 835.776C1543.75 835.776 1540.23 833.664 1540.23 829.632C1540.23 826.816 1541.83 824.64 1543.82 823.232L1565.7 808.32L1545.99 808.32C1542.66 808.32 1540.23 806.016 1540.23 802.816Z"
            fill="white" />
        <!-- White rectangle that acts as a background -->
        <rect x="78" y="82" width="1443" height="676" fill="white" />
        <path
            transform="translate(0, -80)"
            d="M120.883 816.948C117.091 816.948 113.931 814.104 113.931 810.154V776.105H107.611C103.819 776.105 100.343 773.182 100.343 768.837C100.343 764.413 103.819 761.49 107.611 761.49H134.234C138.105 761.49 141.502 764.413 141.502 768.837C141.502 773.182 138.105 776.105 134.234 776.105H127.756V810.154C127.756 814.104 124.675 816.948 120.883 816.948ZM165.951 816.948C161.053 816.948 157.34 813.867 155.997 808.89L145.569 770.338C143.989 764.571 147.781 760.463 152.442 760.463C156.55 760.463 159.394 762.754 160.263 767.336L166.662 796.882H167.136L173.851 767.889C174.799 763.544 177.643 760.542 181.988 760.542C186.333 760.542 189.177 763.544 190.125 767.889L196.84 796.882H197.314L203.713 767.336C204.582 762.754 207.347 760.463 211.534 760.463C216.116 760.463 219.987 764.571 218.407 770.338L207.979 808.89C206.636 813.867 202.923 816.948 198.025 816.948C193.127 816.948 189.414 813.709 188.229 808.495L182.225 783.373H181.751L175.747 808.495C174.483 813.709 170.77 816.948 165.951 816.948ZM231.973 816.948C228.339 816.948 225.1 814.341 225.1 809.759V767.731C225.1 763.149 228.339 760.542 231.973 760.542C235.528 760.542 238.846 763.149 238.846 767.731V809.759C238.846 814.341 235.528 816.948 231.973 816.948ZM264.611 816.948C260.819 816.948 257.659 814.104 257.659 810.154V776.105H251.339C247.547 776.105 244.071 773.182 244.071 768.837C244.071 764.413 247.547 761.49 251.339 761.49H277.962C281.833 761.49 285.23 764.413 285.23 768.837C285.23 773.182 281.833 776.105 277.962 776.105H271.484V810.154C271.484 814.104 268.403 816.948 264.611 816.948ZM313.324 816.948C296.102 816.948 286.069 806.204 286.069 788.508C286.069 770.654 296.655 760.542 312.85 760.542C328.176 760.542 336.866 768.6 336.866 775.71C336.866 780.687 333.469 783.136 329.993 783.136C327.939 783.136 325.885 782.188 324.305 780.292C322.172 777.369 319.091 775.394 313.087 775.394C305.029 775.394 300.131 778.475 300.131 788.508C300.131 799.015 305.266 802.175 313.719 802.175C320.276 802.175 322.804 799.568 324.937 797.277C326.596 795.539 328.176 793.959 331.099 793.959C334.259 793.959 337.34 796.408 337.34 800.832C337.34 809.522 326.438 816.948 313.324 816.948ZM351.553 816.948C347.919 816.948 344.68 814.42 344.68 809.759V767.731C344.68 763.149 347.998 760.542 351.553 760.542C355.108 760.542 358.426 763.07 358.426 767.731V780.687H377.781V767.731C377.781 763.149 381.178 760.542 384.654 760.542C388.288 760.542 391.527 763.07 391.527 767.731V809.759C391.527 814.341 388.209 816.948 384.654 816.948C381.099 816.948 377.781 814.42 377.781 809.759V794.749H358.426V809.759C358.426 814.341 355.029 816.948 351.553 816.948ZM406.991 816.553C402.172 816.553 399.249 813.235 399.249 808.574C399.249 803.834 402.172 800.437 406.991 800.437C411.731 800.437 414.733 803.834 414.733 808.574C414.733 813.235 411.731 816.553 406.991 816.553ZM436.96 816.948C433.168 816.948 430.008 814.104 430.008 810.154V776.105H423.688C419.896 776.105 416.42 773.182 416.42 768.837C416.42 764.413 419.896 761.49 423.688 761.49H450.311C454.182 761.49 457.579 764.413 457.579 768.837C457.579 773.182 454.182 776.105 450.311 776.105H443.833V810.154C443.833 814.104 440.752 816.948 436.96 816.948ZM485.425 816.869C479.421 816.869 475.708 813.946 473.338 806.678L461.804 771.286C459.829 765.677 463.147 760.542 468.361 760.542C472.311 760.542 474.76 762.912 475.708 766.704L485.267 800.595H485.504L494.905 766.704C495.932 762.912 498.302 760.542 502.252 760.542C507.545 760.542 510.863 765.677 508.888 771.286L497.275 806.678C494.826 813.946 491.508 816.869 485.425 816.869ZM509.151 831.089C505.991 829.904 504.964 826.665 506.228 823.505L529.059 763.86C530.402 760.147 533.641 759.041 536.485 760.147C539.724 761.411 540.751 764.65 539.487 767.81L516.656 827.455C515.313 831.168 512.074 832.195 509.151 831.089ZM578.189 816H552.751C548.959 816 546.115 812.998 546.115 808.811V768.679C546.115 764.492 548.959 761.49 552.751 761.49H577.241C580.875 761.49 584.193 764.334 584.193 768.679C584.193 773.024 580.875 775.868 577.241 775.868H559.861V783.294L569.815 782.504C571.632 782.267 573.054 782.109 574.16 782.109C577.399 782.109 579.69 784.4 579.69 787.718C579.69 791.036 577.399 793.327 573.923 793.327C572.896 793.327 571.553 793.248 569.657 793.09L559.861 792.537V801.622H578.189C581.823 801.622 585.22 804.466 585.22 808.89C585.22 813.156 581.823 816 578.189 816ZM612.327 816.948C598.423 816.948 589.259 810.707 589.259 803.123C589.259 799.252 592.261 796.566 595.816 796.566C598.66 796.566 599.845 797.988 601.425 799.568C603.242 801.464 605.612 803.518 611.932 803.518C617.541 803.518 621.491 801.859 621.491 798.146C621.491 794.986 617.225 794.354 612.011 793.722C603.084 792.774 590.523 792.142 590.523 778.159C590.523 767.494 598.581 760.542 612.643 760.542C624.809 760.542 634.684 765.203 634.684 773.34C634.684 777.211 631.445 779.897 628.206 779.897C626.152 779.897 624.73 779.028 623.229 777.843C620.859 775.947 618.489 773.893 612.801 773.893C607.982 773.893 604.506 775.473 604.506 778.396C604.506 781.872 608.93 782.741 614.065 783.136C622.913 784.005 635.553 784.479 635.553 798.225C635.553 810.391 625.836 816.948 612.327 816.948ZM663.476 816.948C649.572 816.948 640.408 810.707 640.408 803.123C640.408 799.252 643.41 796.566 646.965 796.566C649.809 796.566 650.994 797.988 652.574 799.568C654.391 801.464 656.761 803.518 663.081 803.518C668.69 803.518 672.64 801.859 672.64 798.146C672.64 794.986 668.374 794.354 663.16 793.722C654.233 792.774 641.672 792.142 641.672 778.159C641.672 767.494 649.73 760.542 663.792 760.542C675.958 760.542 685.833 765.203 685.833 773.34C685.833 777.211 682.594 779.897 679.355 779.897C677.301 779.897 675.879 779.028 674.378 777.843C672.008 775.947 669.638 773.893 663.95 773.893C659.131 773.893 655.655 775.473 655.655 778.396C655.655 781.872 660.079 782.741 665.214 783.136C674.062 784.005 686.702 784.479 686.702 798.225C686.702 810.391 676.985 816.948 663.476 816.948ZM726.391 816H700.953C697.161 816 694.317 812.998 694.317 808.811V768.679C694.317 764.492 697.161 761.49 700.953 761.49H725.443C729.077 761.49 732.395 764.334 732.395 768.679C732.395 773.024 729.077 775.868 725.443 775.868H708.063V783.294L718.017 782.504C719.834 782.267 721.256 782.109 722.362 782.109C725.601 782.109 727.892 784.4 727.892 787.718C727.892 791.036 725.601 793.327 722.125 793.327C721.098 793.327 719.755 793.248 717.859 793.09L708.063 792.537V801.622H726.391C730.025 801.622 733.422 804.466 733.422 808.89C733.422 813.156 730.025 816 726.391 816ZM746.704 816.948C742.833 816.948 739.989 813.946 739.989 809.838V768.284C739.989 764.176 742.754 760.542 747.889 760.542C751.523 760.542 753.814 762.675 755.552 765.124L773.88 792.695V767.731C773.88 763.544 776.724 760.542 780.595 760.542C784.466 760.542 787.389 763.544 787.389 767.731V807.863C787.389 812.603 784.782 816.948 779.805 816.948C776.329 816.948 773.643 814.973 771.905 812.524L753.498 785.506V809.838C753.498 813.946 750.654 816.948 746.704 816.948ZM813.213 816.948C809.421 816.948 806.261 814.104 806.261 810.154V776.105H799.941C796.149 776.105 792.673 773.182 792.673 768.837C792.673 764.413 796.149 761.49 799.941 761.49H826.564C830.435 761.49 833.832 764.413 833.832 768.837C833.832 773.182 830.435 776.105 826.564 776.105H820.086V810.154C820.086 814.104 817.005 816.948 813.213 816.948ZM845.997 816.948C842.363 816.948 839.124 814.341 839.124 809.759V767.731C839.124 763.149 842.363 760.542 845.997 760.542C849.552 760.542 852.87 763.149 852.87 767.731V809.759C852.87 814.341 849.552 816.948 845.997 816.948ZM895.451 771.049L906.511 806.441C908.012 811.339 906.195 816.869 899.875 816.869C896.399 816.869 893.713 814.815 892.607 809.838L891.422 804.782H874.279L872.857 810.628C871.988 814.894 869.223 816.869 865.589 816.869C859.901 816.869 857.531 812.129 859.506 805.888L870.408 771.049C872.462 764.413 876.649 760.542 883.048 760.542C889.526 760.542 893.318 764.413 895.451 771.049ZM888.42 792.537L883.917 776.263H881.784L877.281 792.537H888.42ZM941.236 816H919.827C915.719 816 913.033 813.472 913.033 808.811V767.731C913.033 763.149 916.351 760.542 919.906 760.542C923.461 760.542 926.779 763.07 926.779 767.731V801.622H941.236C944.949 801.622 948.267 804.545 948.267 808.89C948.267 813.235 944.949 816 941.236 816ZM960.409 816.948C956.775 816.948 953.536 814.42 953.536 809.838V768.679C953.536 764.097 956.538 761.49 960.014 761.49H976.604C989.244 761.49 996.433 767.336 996.433 777.764C996.433 784.242 993.273 790.246 986.084 792.537C990.271 793.801 991.93 796.487 993.115 799.884L995.643 806.678C997.776 812.287 994.379 816.948 989.007 816.948C985.689 816.948 983.398 815.052 982.371 811.734L979.211 802.017C978.184 798.778 976.446 797.435 973.286 796.961L967.203 796.329V809.838C967.203 814.42 963.885 816.948 960.409 816.948ZM967.203 775.078V785.901H974.866C979.527 785.901 982.608 783.926 982.608 780.213C982.608 776.5 979.053 775.078 974.787 775.078H967.203ZM1037.1 771.049L1048.16 806.441C1049.66 811.339 1047.84 816.869 1041.52 816.869C1038.04 816.869 1035.36 814.815 1034.25 809.838L1033.07 804.782H1015.92L1014.5 810.628C1013.63 814.894 1010.87 816.869 1007.23 816.869C1001.55 816.869 999.175 812.129 1001.15 805.888L1012.05 771.049C1014.11 764.413 1018.29 760.542 1024.69 760.542C1031.17 760.542 1034.96 764.413 1037.1 771.049ZM1030.06 792.537L1025.56 776.263H1023.43L1018.93 792.537H1030.06ZM1061.39 816.948C1057.52 816.948 1054.68 813.946 1054.68 809.838V768.284C1054.68 764.176 1057.44 760.542 1062.58 760.542C1066.21 760.542 1068.5 762.675 1070.24 765.124L1088.57 792.695V767.731C1088.57 763.544 1091.41 760.542 1095.28 760.542C1099.15 760.542 1102.08 763.544 1102.08 767.731V807.863C1102.08 812.603 1099.47 816.948 1094.49 816.948C1091.02 816.948 1088.33 814.973 1086.59 812.524L1068.19 785.506V809.838C1068.19 813.946 1065.34 816.948 1061.39 816.948ZM1133.01 816H1118.63C1114.84 816 1112 812.998 1112 808.811V768.679C1112 764.492 1114.84 761.49 1118.63 761.49H1133.01C1151.58 761.49 1159.79 774.051 1159.79 788.429C1159.79 803.518 1151.66 816 1133.01 816ZM1125.74 775.71V801.78H1132.38C1140.52 801.78 1146.05 798.541 1146.05 788.666C1146.05 779.186 1140.68 775.71 1132.46 775.71H1125.74ZM1192.58 816.948C1176.62 816.948 1165.56 806.441 1165.56 788.745C1165.56 771.049 1176.62 760.542 1192.58 760.542C1208.62 760.542 1219.68 771.049 1219.68 788.745C1219.68 806.441 1208.62 816.948 1192.58 816.948ZM1192.58 802.333C1201.27 802.333 1205.77 797.356 1205.77 788.745C1205.77 780.055 1201.27 775.157 1192.58 775.157C1183.97 775.157 1179.47 780.055 1179.47 788.745C1179.47 797.356 1183.97 802.333 1192.58 802.333ZM1233.97 816.948C1229.79 816.948 1227.26 813.63 1227.26 809.838V772.076C1227.26 765.203 1231.05 760.542 1238.24 760.542C1245.43 760.542 1248.19 764.413 1250.17 771.365L1258.31 797.83L1266.21 771.365C1268.1 764.729 1271.1 760.542 1278.13 760.542C1285.09 760.542 1289.12 765.203 1289.12 771.365V809.838C1289.12 813.63 1286.75 816.948 1282.56 816.948C1278.37 816.948 1275.84 813.63 1275.84 809.838V779.581H1275.69L1265.89 811.023C1264.86 814.657 1262.18 816.948 1258.31 816.948C1254.51 816.948 1251.59 814.815 1250.48 811.181L1240.69 779.581H1240.45V809.838C1240.45 813.63 1238.16 816.948 1233.97 816.948ZM1305.8 816.948C1301.93 816.948 1299.08 813.946 1299.08 809.838V768.284C1299.08 764.176 1301.85 760.542 1306.98 760.542C1310.62 760.542 1312.91 762.675 1314.65 765.124L1332.97 792.695V767.731C1332.97 763.544 1335.82 760.542 1339.69 760.542C1343.56 760.542 1346.48 763.544 1346.48 767.731V807.863C1346.48 812.603 1343.88 816.948 1338.9 816.948C1335.42 816.948 1332.74 814.973 1331 812.524L1312.59 785.506V809.838C1312.59 813.946 1309.75 816.948 1305.8 816.948ZM1388.48 816H1363.04C1359.25 816 1356.4 812.998 1356.4 808.811V768.679C1356.4 764.492 1359.25 761.49 1363.04 761.49H1387.53C1391.16 761.49 1394.48 764.334 1394.48 768.679C1394.48 773.024 1391.16 775.868 1387.53 775.868H1370.15V783.294L1380.1 782.504C1381.92 782.267 1383.34 782.109 1384.45 782.109C1387.69 782.109 1389.98 784.4 1389.98 787.718C1389.98 791.036 1387.69 793.327 1384.21 793.327C1383.19 793.327 1381.84 793.248 1379.95 793.09L1370.15 792.537V801.622H1388.48C1392.11 801.622 1395.51 804.466 1395.51 808.89C1395.51 813.156 1392.11 816 1388.48 816ZM1422.62 816.948C1408.71 816.948 1399.55 810.707 1399.55 803.123C1399.55 799.252 1402.55 796.566 1406.11 796.566C1408.95 796.566 1410.13 797.988 1411.71 799.568C1413.53 801.464 1415.9 803.518 1422.22 803.518C1427.83 803.518 1431.78 801.859 1431.78 798.146C1431.78 794.986 1427.51 794.354 1422.3 793.722C1413.37 792.774 1400.81 792.142 1400.81 778.159C1400.81 767.494 1408.87 760.542 1422.93 760.542C1435.1 760.542 1444.97 765.203 1444.97 773.34C1444.97 777.211 1441.73 779.897 1438.5 779.897C1436.44 779.897 1435.02 779.028 1433.52 777.843C1431.15 775.947 1428.78 773.893 1423.09 773.893C1418.27 773.893 1414.8 775.473 1414.8 778.396C1414.8 781.872 1419.22 782.741 1424.35 783.136C1433.2 784.005 1445.84 784.479 1445.84 798.225C1445.84 810.391 1436.13 816.948 1422.62 816.948ZM1473.77 816.948C1459.86 816.948 1450.7 810.707 1450.7 803.123C1450.7 799.252 1453.7 796.566 1457.26 796.566C1460.1 796.566 1461.28 797.988 1462.86 799.568C1464.68 801.464 1467.05 803.518 1473.37 803.518C1478.98 803.518 1482.93 801.859 1482.93 798.146C1482.93 794.986 1478.66 794.354 1473.45 793.722C1464.52 792.774 1451.96 792.142 1451.96 778.159C1451.96 767.494 1460.02 760.542 1474.08 760.542C1486.25 760.542 1496.12 765.203 1496.12 773.34C1496.12 777.211 1492.88 779.897 1489.65 779.897C1487.59 779.897 1486.17 779.028 1484.67 777.843C1482.3 775.947 1479.93 773.893 1474.24 773.893C1469.42 773.893 1465.95 775.473 1465.95 778.396C1465.95 781.872 1470.37 782.741 1475.5 783.136C1484.35 784.005 1496.99 784.479 1496.99 798.225C1496.99 810.391 1487.28 816.948 1473.77 816.948Z"
            fill="#2cd19a" />
        <!-- Only on -->
        <path
            transform="translate(0, -60)"
            d="M128.625 726.948C112.667 726.948 101.607 716.441 101.607 698.745C101.607 681.049 112.667 670.542 128.625 670.542C144.662 670.542 155.722 681.049 155.722 698.745C155.722 716.441 144.662 726.948 128.625 726.948ZM128.625 712.333C137.315 712.333 141.818 707.356 141.818 698.745C141.818 690.055 137.315 685.157 128.625 685.157C120.014 685.157 115.511 690.055 115.511 698.745C115.511 707.356 120.014 712.333 128.625 712.333ZM169.387 726.948C165.911 726.948 162.909 724.42 162.909 720.312V698.903L162.04 689.976C161.566 686.342 164.173 683.103 168.518 683.103C171.836 683.103 174.522 685.236 174.759 688.791L175.154 695.506H175.707C177.05 685.71 183.449 682.945 189.216 682.945C197.353 682.945 202.251 688.08 202.251 697.481V720.312C202.251 724.42 198.854 726.948 195.536 726.948C192.06 726.948 188.9 724.341 188.9 720.312V702.063C188.9 698.508 187.399 696.375 183.686 696.375C179.499 696.375 176.181 699.219 176.181 702.932V720.312C176.181 724.262 173.021 726.948 169.387 726.948ZM212.446 671.49H219.793C222.479 671.49 225.007 673.465 225.007 676.862V720.312C225.007 724.341 221.689 726.948 218.371 726.948C214.816 726.948 211.735 724.341 211.735 720.312V685.552C207.627 685.078 205.415 681.839 205.415 678.442C205.415 674.808 208.101 671.49 212.446 671.49ZM263.283 683.103C268.734 683.103 271.025 688.159 269.445 692.662L258.938 723.235C256.252 731.056 251.907 741.8 239.978 741.8C233.342 741.8 227.417 737.692 227.417 731.846C227.417 728.291 230.024 725.368 233.026 725.368C233.974 725.368 234.922 725.684 235.791 726.316C237.292 727.264 238.635 728.607 241.321 728.607C244.797 728.607 246.614 725.921 247.72 722.366L247.957 721.497C247.483 721.655 247.009 721.734 246.377 721.734C242.664 721.734 240.768 719.285 239.346 715.73L230.577 693.215C228.523 687.764 231.288 683.182 236.739 683.182C240.136 683.182 242.427 685.157 243.296 688.159L249.853 708.62H250.485L256.489 688.238C257.279 685.394 259.649 683.103 263.283 683.103ZM311.635 726.948C297.573 726.948 290.384 717.705 290.384 704.828C290.384 691.951 297.573 682.945 311.635 682.945C325.697 682.945 332.886 691.951 332.886 704.828C332.886 717.705 325.697 726.948 311.635 726.948ZM311.635 713.676C317.481 713.676 320.483 710.832 320.483 704.749C320.483 698.903 317.481 696.217 311.714 696.217C305.789 696.217 302.787 698.903 302.787 704.749C302.787 710.832 305.789 713.676 311.635 713.676ZM345.748 726.948C342.272 726.948 339.27 724.42 339.27 720.312V698.903L338.401 689.976C337.927 686.342 340.534 683.103 344.879 683.103C348.197 683.103 350.883 685.236 351.12 688.791L351.515 695.506H352.068C353.411 685.71 359.81 682.945 365.577 682.945C373.714 682.945 378.612 688.08 378.612 697.481V720.312C378.612 724.42 375.215 726.948 371.897 726.948C368.421 726.948 365.261 724.341 365.261 720.312V702.063C365.261 698.508 363.76 696.375 360.047 696.375C355.86 696.375 352.542 699.219 352.542 702.932V720.312C352.542 724.262 349.382 726.948 345.748 726.948Z"
            fill="#2cd19a" />
        <path
            d="M128.862 185.948C111.64 185.948 101.607 175.204 101.607 157.508C101.607 139.654 112.193 129.542 128.388 129.542C143.714 129.542 152.404 137.6 152.404 144.71C152.404 149.687 149.007 152.136 145.531 152.136C143.477 152.136 141.423 151.188 139.843 149.292C137.71 146.369 134.629 144.394 128.625 144.394C120.567 144.394 115.669 147.475 115.669 157.508C115.669 168.015 120.804 171.175 129.257 171.175C135.814 171.175 138.342 168.568 140.475 166.277C142.134 164.539 143.714 162.959 146.637 162.959C149.797 162.959 152.878 165.408 152.878 169.832C152.878 178.522 141.976 185.948 128.862 185.948ZM179.711 185.948C165.649 185.948 158.46 176.705 158.46 163.828C158.46 150.951 165.649 141.945 179.711 141.945C193.773 141.945 200.962 150.951 200.962 163.828C200.962 176.705 193.773 185.948 179.711 185.948ZM179.711 172.676C185.557 172.676 188.559 169.832 188.559 163.749C188.559 157.903 185.557 155.217 179.79 155.217C173.865 155.217 170.863 157.903 170.863 163.749C170.863 169.832 173.865 172.676 179.711 172.676ZM220.914 185.948C212.698 185.79 206.299 179.47 206.299 164.065C206.299 148.265 214.436 142.024 222.731 142.024C229.051 142.024 234.107 145.579 235.055 155.217H236.082C235.687 150.082 235.687 145.5 235.687 142.419V136.257C235.687 132.07 238.768 129.542 242.323 129.542C245.72 129.542 249.038 132.07 249.038 136.178V171.333L249.749 178.443C250.381 183.183 246.905 185.79 243.508 185.869C240.427 185.869 237.109 184.052 236.793 179.549L236.24 172.281H235.529C234.107 182.235 228.34 185.948 220.914 185.948ZM227.392 171.965C233.396 171.965 235.845 169.516 235.845 164.065C235.845 159.167 233.238 156.323 227.313 156.323C222.573 156.323 219.334 158.377 219.334 164.144C219.334 170.148 222.573 171.965 227.392 171.965ZM265.507 139.891C260.135 139.891 257.765 136.968 257.765 133.176C257.765 129.226 260.056 126.382 265.507 126.382C270.879 126.382 273.328 129.226 273.328 133.097C273.328 136.889 270.879 139.891 265.507 139.891ZM260.135 142.972H267.482C270.247 142.972 272.775 144.947 272.775 148.344V179.312C272.775 183.42 269.457 185.948 266.06 185.948C262.584 185.948 259.424 183.341 259.424 179.312V157.034C255.237 156.56 253.104 153.321 253.104 149.924C253.104 146.211 255.869 142.972 260.135 142.972ZM288.119 185.948C284.643 185.948 281.641 183.42 281.641 179.312V157.903L280.772 148.976C280.298 145.342 282.905 142.103 287.25 142.103C290.568 142.103 293.254 144.236 293.491 147.791L293.886 154.506H294.439C295.782 144.71 302.181 141.945 307.948 141.945C316.085 141.945 320.983 147.08 320.983 156.481V179.312C320.983 183.42 317.586 185.948 314.268 185.948C310.792 185.948 307.632 183.341 307.632 179.312V161.063C307.632 157.508 306.131 155.375 302.418 155.375C298.231 155.375 294.913 158.219 294.913 161.932V179.312C294.913 183.262 291.753 185.948 288.119 185.948ZM341.179 174.73H356.979C365.59 174.73 370.567 178.285 370.567 186.027C370.567 194.085 364.958 201.195 347.183 201.195C333.832 201.195 326.485 198.983 326.485 191.557C326.485 187.212 329.961 184.684 335.254 184.447V183.578C329.171 183.025 326.88 179.786 326.88 176.231C326.88 171.175 330.751 169.279 335.412 168.726C330.909 166.672 328.697 161.932 328.697 156.876C328.697 147.396 336.36 141.945 347.657 141.945C350.659 141.945 355.557 142.498 358.559 143.762L363.931 141.392C367.96 139.496 371.989 141.313 371.989 146.053C371.989 149.371 370.014 151.583 366.696 151.425L361.719 150.872L361.561 151.583C365.511 152.531 366.854 155.849 366.854 158.772C366.854 167.857 357.848 171.728 348.21 171.649C344.655 171.649 341.574 171.254 339.125 170.306C338.177 170.78 337.466 171.807 337.466 172.834C337.466 173.94 338.73 174.73 341.179 174.73ZM347.578 153.163C343.075 153.163 339.836 154.111 339.836 157.271C339.836 160.352 342.759 161.458 347.578 161.458C351.291 161.458 355.557 160.747 355.557 157.271C355.557 154.19 351.844 153.163 347.578 153.163ZM346.946 189.661C353.424 189.661 357.769 188.555 357.769 186.343C357.769 184.368 355.557 184.289 353.187 184.289H338.967C338.335 184.447 337.466 184.921 337.466 185.79C337.466 189.029 341.574 189.661 346.946 189.661ZM411.415 185.948C398.617 185.948 391.823 182.077 391.823 175.599C391.823 172.123 394.509 169.279 397.432 169.279C399.486 169.279 400.671 170.385 402.172 171.491C404.147 172.913 406.201 174.019 410.862 174.019C415.365 174.019 418.604 173.624 418.604 170.859C418.604 168.489 413.469 168.331 409.124 168.015C400.434 167.383 393.008 165.645 393.008 155.612C393.008 147.001 399.802 141.945 411.652 141.945C422.317 141.945 430.059 145.342 430.059 151.662C430.059 155.059 427.373 157.982 424.292 157.982C422.949 157.982 421.606 157.429 420.421 156.402C418.683 154.664 416.076 153.953 412.126 153.953C407.702 153.953 405.253 154.98 405.253 156.718C405.253 159.167 408.966 159.325 414.18 159.72C422.396 160.273 430.849 161.458 430.849 171.096C430.849 181.129 422.238 185.948 411.415 185.948ZM453.235 185.948C446.204 185.948 440.2 181.998 440.2 170.78V156.007L438.541 156.086C434.986 156.244 432.616 153.163 432.616 149.766C432.616 146.211 435.144 143.209 438.62 143.367L440.595 143.446V139.101C440.595 135.388 443.518 132.86 447.231 132.86C451.26 132.86 453.788 135.783 453.63 139.496L453.472 143.604L459.16 143.209C462.794 143.051 465.243 145.974 465.243 149.529C465.243 153.163 462.715 156.323 459.081 156.086L453.551 155.849V167.541C453.551 170.859 455.131 172.123 456.869 172.123C458.291 172.123 459.555 171.649 460.503 171.017C461.451 170.543 462.162 170.306 462.873 170.306C465.006 170.306 466.665 172.281 466.665 175.678C466.665 182.472 460.345 185.948 453.235 185.948ZM478.754 185.948C475.278 185.948 472.197 183.42 472.197 179.312V157.903L471.328 148.976C470.854 145.342 473.461 142.103 477.806 142.103C481.124 142.103 483.889 144.236 484.126 148.186L484.521 155.691H485.469C486.022 145.5 491.078 142.182 495.186 142.182C499.136 142.182 501.427 145.342 501.427 149.529C501.427 154.506 498.425 158.93 493.053 158.535C488.787 158.298 485.548 160.589 485.548 165.25V179.312C485.548 183.262 482.388 185.948 478.754 185.948ZM538.784 168.805C541.707 168.805 544.077 171.096 544.077 174.572C544.077 182.314 533.965 185.948 525.275 185.948C511.766 185.948 503.313 177.89 503.313 164.144C503.313 149.924 512.319 142.103 524.801 142.103C537.994 142.103 545.262 149.45 545.262 159.641C545.262 164.539 542.734 166.672 537.362 166.672H516.664C517.375 170.859 521.404 172.913 525.986 172.913C529.857 172.913 532.069 171.491 534.202 170.306C535.624 169.516 536.967 168.805 538.784 168.805ZM524.722 153.795C520.693 153.795 517.217 155.849 516.585 160.115L532.385 159.799C532.306 156.718 529.541 153.795 524.722 153.795ZM561.853 185.869C554.348 185.711 549.371 181.287 549.371 172.834C549.371 165.566 554.901 161.221 564.065 161.221C571.412 161.221 574.414 163.986 575.757 167.225H575.994V161.379C575.994 157.429 573.15 155.296 568.647 155.296C565.092 155.296 563.512 156.244 562.09 157.666C560.747 158.93 559.562 160.51 556.56 160.51C552.689 160.51 550.556 157.666 550.556 154.19C550.556 145.816 560.668 142.103 569.674 142.103C581.05 142.103 589.108 146.764 589.108 159.404V171.965L589.977 178.285C590.688 183.104 587.291 185.869 583.815 185.948C580.102 186.027 577.653 183.736 577.179 180.418L576.547 175.836H575.994C574.73 182.235 569.753 185.869 561.853 185.869ZM569.358 175.046C572.913 175.046 576.389 174.019 576.389 171.57C576.389 169.358 573.229 168.331 569.358 168.331C565.329 168.331 562.406 169.279 562.406 171.807C562.406 174.256 565.329 175.046 569.358 175.046ZM604.277 185.948C600.801 185.948 597.72 183.42 597.72 179.312V158.219L596.772 148.976C596.298 145.342 598.905 142.103 603.25 142.103C606.568 142.103 609.254 144.236 609.491 147.791L609.886 154.585H610.518C611.624 145.737 617.312 141.945 623.632 141.945C630.663 141.945 634.534 146.527 635.166 154.348H635.561C637.062 145.026 642.118 141.945 648.28 141.945C656.733 141.945 660.446 147.317 660.446 156.402V179.312C660.446 183.42 657.128 185.948 653.731 185.948C650.255 185.948 647.095 183.341 647.095 179.312V160.905C647.095 157.982 645.91 155.454 642.434 155.454C638.484 155.454 635.798 158.14 635.798 162.169V179.312C635.798 183.42 632.717 185.948 629.241 185.948C625.528 185.948 622.447 183.262 622.447 179.391V160.905C622.447 157.982 621.183 155.454 617.707 155.454C613.678 155.454 611.071 158.14 611.071 162.248V179.312C611.071 183.262 607.911 185.948 604.277 185.948ZM676.786 139.891C671.414 139.891 669.044 136.968 669.044 133.176C669.044 129.226 671.335 126.382 676.786 126.382C682.158 126.382 684.607 129.226 684.607 133.097C684.607 136.889 682.158 139.891 676.786 139.891ZM671.414 142.972H678.761C681.526 142.972 684.054 144.947 684.054 148.344V179.312C684.054 183.42 680.736 185.948 677.339 185.948C673.863 185.948 670.703 183.341 670.703 179.312V157.034C666.516 156.56 664.383 153.321 664.383 149.924C664.383 146.211 667.148 142.972 671.414 142.972ZM699.397 185.948C695.921 185.948 692.919 183.42 692.919 179.312V157.903L692.05 148.976C691.576 145.342 694.183 142.103 698.528 142.103C701.846 142.103 704.532 144.236 704.769 147.791L705.164 154.506H705.717C707.06 144.71 713.459 141.945 719.226 141.945C727.363 141.945 732.261 147.08 732.261 156.481V179.312C732.261 183.42 728.864 185.948 725.546 185.948C722.07 185.948 718.91 183.341 718.91 179.312V161.063C718.91 157.508 717.409 155.375 713.696 155.375C709.509 155.375 706.191 158.219 706.191 161.932V179.312C706.191 183.262 703.031 185.948 699.397 185.948ZM752.458 174.73H768.258C776.869 174.73 781.846 178.285 781.846 186.027C781.846 194.085 776.237 201.195 758.462 201.195C745.111 201.195 737.764 198.983 737.764 191.557C737.764 187.212 741.24 184.684 746.533 184.447V183.578C740.45 183.025 738.159 179.786 738.159 176.231C738.159 171.175 742.03 169.279 746.691 168.726C742.188 166.672 739.976 161.932 739.976 156.876C739.976 147.396 747.639 141.945 758.936 141.945C761.938 141.945 766.836 142.498 769.838 143.762L775.21 141.392C779.239 139.496 783.268 141.313 783.268 146.053C783.268 149.371 781.293 151.583 777.975 151.425L772.998 150.872L772.84 151.583C776.79 152.531 778.133 155.849 778.133 158.772C778.133 167.857 769.127 171.728 759.489 171.649C755.934 171.649 752.853 171.254 750.404 170.306C749.456 170.78 748.745 171.807 748.745 172.834C748.745 173.94 750.009 174.73 752.458 174.73ZM758.857 153.163C754.354 153.163 751.115 154.111 751.115 157.271C751.115 160.352 754.038 161.458 758.857 161.458C762.57 161.458 766.836 160.747 766.836 157.271C766.836 154.19 763.123 153.163 758.857 153.163ZM758.225 189.661C764.703 189.661 769.048 188.555 769.048 186.343C769.048 184.368 766.836 184.289 764.466 184.289H750.246C749.614 184.447 748.745 184.921 748.745 185.79C748.745 189.029 752.853 189.661 758.225 189.661ZM822.693 185.948C809.895 185.948 803.101 182.077 803.101 175.599C803.101 172.123 805.787 169.279 808.71 169.279C810.764 169.279 811.949 170.385 813.45 171.491C815.425 172.913 817.479 174.019 822.14 174.019C826.643 174.019 829.882 173.624 829.882 170.859C829.882 168.489 824.747 168.331 820.402 168.015C811.712 167.383 804.286 165.645 804.286 155.612C804.286 147.001 811.08 141.945 822.93 141.945C833.595 141.945 841.337 145.342 841.337 151.662C841.337 155.059 838.651 157.982 835.57 157.982C834.227 157.982 832.884 157.429 831.699 156.402C829.961 154.664 827.354 153.953 823.404 153.953C818.98 153.953 816.531 154.98 816.531 156.718C816.531 159.167 820.244 159.325 825.458 159.72C833.674 160.273 842.127 161.458 842.127 171.096C842.127 181.129 833.516 185.948 822.693 185.948ZM868.426 185.948C854.759 185.948 846.701 178.285 846.701 163.512C846.701 150.319 854.601 142.103 867.873 142.103C875.931 142.103 885.174 145.974 885.174 152.768C885.174 155.928 882.725 159.009 879.565 159.009C877.827 159.009 876.563 158.298 875.22 157.508C873.403 156.402 871.428 155.375 868.268 155.375C864.239 155.375 859.736 157.192 859.736 163.828C859.736 170.385 864.476 172.676 869.058 172.676C871.823 172.676 873.798 171.57 875.457 170.622C877.116 169.674 878.459 169.042 880.197 169.042C883.673 169.042 885.648 172.281 885.648 175.283C885.648 181.208 877.669 185.948 868.426 185.948ZM898.44 185.948C894.964 185.948 891.962 183.42 891.962 179.312V136.178C891.962 131.991 895.28 129.542 898.598 129.542C902.153 129.542 905.234 132.07 905.234 136.178V141.392C905.234 143.92 904.602 150.556 903.891 154.743H904.76C906.182 144.868 912.502 142.103 918.269 142.103C926.406 142.103 931.304 147.317 931.304 156.639V179.312C931.304 183.42 927.986 185.948 924.589 185.948C921.113 185.948 917.953 183.341 917.953 179.312V161.221C917.953 157.666 916.452 155.612 912.739 155.612C908.552 155.612 905.234 158.377 905.234 162.09V179.312C905.234 183.262 902.153 185.948 898.44 185.948ZM972.821 168.805C975.744 168.805 978.114 171.096 978.114 174.572C978.114 182.314 968.002 185.948 959.312 185.948C945.803 185.948 937.35 177.89 937.35 164.144C937.35 149.924 946.356 142.103 958.838 142.103C972.031 142.103 979.299 149.45 979.299 159.641C979.299 164.539 976.771 166.672 971.399 166.672H950.701C951.412 170.859 955.441 172.913 960.023 172.913C963.894 172.913 966.106 171.491 968.239 170.306C969.661 169.516 971.004 168.805 972.821 168.805ZM958.759 153.795C954.73 153.795 951.254 155.849 950.622 160.115L966.422 159.799C966.343 156.718 963.578 153.795 958.759 153.795ZM998.879 185.948C990.663 185.79 984.264 179.47 984.264 164.065C984.264 148.265 992.401 142.024 1000.7 142.024C1007.02 142.024 1012.07 145.579 1013.02 155.217H1014.05C1013.65 150.082 1013.65 145.5 1013.65 142.419V136.257C1013.65 132.07 1016.73 129.542 1020.29 129.542C1023.69 129.542 1027 132.07 1027 136.178V171.333L1027.71 178.443C1028.35 183.183 1024.87 185.79 1021.47 185.869C1018.39 185.869 1015.07 184.052 1014.76 179.549L1014.21 172.281H1013.49C1012.07 182.235 1006.31 185.948 998.879 185.948ZM1005.36 171.965C1011.36 171.965 1013.81 169.516 1013.81 164.065C1013.81 159.167 1011.2 156.323 1005.28 156.323C1000.54 156.323 997.299 158.377 997.299 164.144C997.299 170.148 1000.54 171.965 1005.36 171.965ZM1048.4 185.948C1040.26 185.948 1035.36 180.734 1035.36 171.333V148.739C1035.36 144.631 1038.68 142.103 1042 142.103C1045.47 142.103 1048.63 144.71 1048.63 148.739V166.751C1048.63 170.306 1050.14 172.439 1053.93 172.439C1058.11 172.439 1061.35 169.595 1061.35 165.882V148.739C1061.35 144.71 1064.51 142.103 1068.15 142.103C1071.62 142.103 1074.7 144.631 1074.7 148.739V170.78L1075.65 179.075C1076.13 182.709 1073.44 185.869 1069.1 185.869C1065.78 185.869 1063.17 183.894 1062.93 180.26L1062.46 173.308H1061.83C1060.48 183.104 1054.16 185.948 1048.4 185.948ZM1085.69 130.49H1093.04C1095.72 130.49 1098.25 132.465 1098.25 135.862V179.312C1098.25 183.341 1094.93 185.948 1091.61 185.948C1088.06 185.948 1084.98 183.341 1084.98 179.312V144.552C1080.87 144.078 1078.66 140.839 1078.66 137.442C1078.66 133.808 1081.34 130.49 1085.69 130.49ZM1140.7 168.805C1143.62 168.805 1145.99 171.096 1145.99 174.572C1145.99 182.314 1135.88 185.948 1127.19 185.948C1113.68 185.948 1105.23 177.89 1105.23 164.144C1105.23 149.924 1114.23 142.103 1126.71 142.103C1139.91 142.103 1147.17 149.45 1147.17 159.641C1147.17 164.539 1144.65 166.672 1139.27 166.672H1118.58C1119.29 170.859 1123.32 172.913 1127.9 172.913C1131.77 172.913 1133.98 171.491 1136.11 170.306C1137.54 169.516 1138.88 168.805 1140.7 168.805ZM1126.63 153.795C1122.61 153.795 1119.13 155.849 1118.5 160.115L1134.3 159.799C1134.22 156.718 1131.45 153.795 1126.63 153.795Z"
            fill="#2cd19a" />
        <text fill="#2cd19a" xml:space="preserve" style="white-space: pre" font-family="Hoss Round"
            font-size="45" font-weight="500" letter-spacing="0em"><tspan x="100" y="265.75">Nov 4th&#10;</tspan>
            <tspan x="100" y="319.75">Nov 7th&#10;</tspan>
            <tspan x="100" y="373.75">Nov 11th&#10;</tspan>
            <tspan x="100" y="427.75">Nov 14th&#10;</tspan>
            <tspan x="100" y="481.75">Nov 18th&#10;</tspan>
            <tspan x="100" y="535.75">Nov 21st&#10;</tspan>
            <tspan x="100" y="589.75">Nov 28th&#10;</tspan>
        </text>
        <text fill="#2cd19a" xml:space="preserve" style="white-space: pre" font-family="Hoss Round"
            font-size="45" font-weight="500" letter-spacing="0em">
                <tspan x="355" y="265.75">3pm&#10;</tspan>
                <tspan x="355" y="319.75">3pm&#10;</tspan>
                <tspan x="355" y="373.75">3pm&#10;</tspan>
                <tspan x="355" y="427.75">3pm&#10;</tspan>
                <tspan x="355" y="481.75">3pm&#10;</tspan>
                <tspan x="355" y="535.75">3pm&#10;</tspan>
                <tspan x="355" y="589.75">3pm&#10;</tspan>
        </text>
        <text fill="#2cd19a" xml:space="preserve" style="white-space: pre" font-family="Hoss Round"
            font-size="45" font-weight="500" letter-spacing="0em">
            <tspan x="514" y="265.75">Let's Build MY Webs...Resume!</tspan>
            <tspan x="514" y="319.75">A Fandom Editor: Polish up Time!</tspan>
            <tspan x="514" y="373.75">Let's Build MY Webs...Resume!</tspan>
            <tspan x="514" y="427.75">A Fandom Editor: ??? Time!</tspan>
            <tspan x="514" y="481.75">Let's Build MY Webs...Resume!</tspan>
            <tspan x="514" y="535.75">BobaBoard Stream: TBD</tspan>
            <tspan x="514" y="589.75">Let's Build MY Webs...Resume!</tspan>
        </text>
        <text fill="#2cd19a" xml:space="preserve" style="white-space: pre" font-family="Hoss Round"
            font-size="45" font-weight="bold" letter-spacing="0em">
			<tspan x="1349.32" y="199.75">PDT</tspan>
		</text>
        <text fill="#2cd19a" xml:space="preserve" style="white-space: pre" font-family="Hoss Round"
            font-size="45" letter-spacing="0em">
			<tspan x="1304.21" y="159.75">(Times in&#10;</tspan>
			<tspan x="1432.07" y="199.75">)</tspan>
		</text>
    </g>
    <defs>
        <clipPath id="clip0_128_2">
            <rect width="1600" height="1060" fill="white" />
        </clipPath>
        <clipPath id="clip0_128_4">
            <rect width="1600" height="757" fill="white" />
        </clipPath>
    </defs>
</svg>
    